<svg version="1.2" xmlns="http://www.w3.org/2000/svg" viewBox="0 0 800 800" width="800" height="800">
	<title>OSCQBY1</title>
	<style>
		.s0 { fill: #6523b6 }
	</style>
	<g id="Layer 1">
		<g id="&lt;Group&gt;">
			<path id="&lt;Path&gt;" fill-rule="evenodd" class="s0"
				d="m400.4 404.2c-8.1 0-14.7-6.5-14.7-14.6 0-8.2 6.6-14.7 14.7-14.7 8.1 0 14.7 6.5 14.7 14.7 0 8.1-6.6 14.6-14.7 14.6z" />
			<path id="&lt;Path&gt;" fill-rule="evenodd" class="s0"
				d="m421.9 425.7c-8.2 0-14.7-6.6-14.7-14.7 0-8.1 6.5-14.7 14.7-14.7 8.1 0 14.6 6.6 14.6 14.7 0 8.1-6.5 14.7-14.6 14.7z" />
			<path id="&lt;Path&gt;" fill-rule="evenodd" class="s0"
				d="m378.9 425.7c-8.1 0-14.7-6.6-14.7-14.7 0-8.1 6.6-14.7 14.7-14.7 8.1 0 14.7 6.6 14.7 14.7 0 8.1-6.6 14.7-14.7 14.7z" />
			<path id="&lt;Path&gt;" fill-rule="evenodd" class="s0"
				d="m421.9 382.8c-8.1 0-14.7-6.6-14.7-14.7 0-8.1 6.6-14.7 14.7-14.7 8.1 0 14.6 6.6 14.6 14.7 0 8.1-6.5 14.7-14.6 14.7z" />
			<path id="&lt;Path&gt;" fill-rule="evenodd" class="s0"
				d="m378.9 382.8c-8.1 0-14.6-6.6-14.6-14.7 0-8.1 6.5-14.7 14.6-14.7 8.1 0 14.7 6.6 14.7 14.7 0 8.1-6.6 14.7-14.7 14.7z" />
			<path id="&lt;Path&gt;" fill-rule="evenodd" class="s0"
				d="m400.4 447.2c-8.1 0-14.7-6.6-14.7-14.7 0-8.1 6.6-14.7 14.7-14.7 8.1 0 14.6 6.6 14.6 14.7 0 8.1-6.5 14.7-14.6 14.7z" />
			<path id="&lt;Path&gt;" fill-rule="evenodd" class="s0"
				d="m357.4 404.2c-8 0-14.6-6.5-14.6-14.6 0-8.1 6.6-14.7 14.6-14.7 8.1 0 14.7 6.6 14.7 14.7 0 8.1-6.6 14.6-14.7 14.6z" />
			<path id="&lt;Path&gt;" fill-rule="evenodd" class="s0"
				d="m443.3 404.2c-8.1 0-14.6-6.5-14.6-14.6 0-8.1 6.5-14.7 14.6-14.7 8.1 0 14.6 6.6 14.6 14.7 0 8.1-6.5 14.6-14.6 14.6z" />
			<path id="&lt;Path&gt;" fill-rule="evenodd" class="s0"
				d="m443.3 447.1c-8.1 0-14.6-6.5-14.6-14.6 0-8.1 6.5-14.6 14.6-14.6 8.1 0 14.6 6.5 14.6 14.6 0 8.1-6.5 14.6-14.6 14.6z" />
			<path id="&lt;Path&gt;" fill-rule="evenodd" class="s0"
				d="m400.4 361.2c-8.1 0-14.6-6.5-14.6-14.6 0-8.1 6.5-14.6 14.6-14.6 8 0 14.6 6.5 14.6 14.6 0 8.1-6.6 14.6-14.6 14.6z" />
			<path id="&lt;Path&gt;" fill-rule="evenodd" class="s0"
				d="m357.4 447.1c-8 0-14.6-6.5-14.6-14.6 0-8.1 6.6-14.6 14.6-14.6 8.1 0 14.6 6.5 14.6 14.6 0 8.1-6.5 14.6-14.6 14.6z" />
			<path id="&lt;Path&gt;" fill-rule="evenodd" class="s0"
				d="m378.9 468.6c-8.1 0-14.6-6.6-14.6-14.6 0-8.1 6.5-14.6 14.6-14.6 8 0 14.5 6.5 14.5 14.6 0 8-6.5 14.6-14.5 14.6z" />
			<path id="&lt;Path&gt;" fill-rule="evenodd" class="s0"
				d="m421.8 468.6c-8 0-14.5-6.6-14.5-14.6 0-8.1 6.5-14.6 14.5-14.6 8.1 0 14.6 6.5 14.6 14.6 0 8-6.5 14.6-14.6 14.6z" />
			<path id="&lt;Path&gt;" fill-rule="evenodd" class="s0"
				d="m443.3 361.2c-8 0-14.5-6.5-14.5-14.6 0-8 6.5-14.5 14.5-14.5 8 0 14.5 6.5 14.5 14.5 0 8.1-6.5 14.6-14.5 14.6z" />
			<path id="&lt;Path&gt;" fill-rule="evenodd" class="s0"
				d="m357.4 361.2c-8 0-14.5-6.5-14.5-14.6 0-8 6.5-14.5 14.5-14.5 8 0 14.5 6.5 14.5 14.5 0 8.1-6.5 14.6-14.5 14.6z" />
			<path id="&lt;Path&gt;" fill-rule="evenodd" class="s0"
				d="m335.9 425.6c-8 0-14.5-6.5-14.5-14.6 0-8 6.5-14.5 14.5-14.5 8 0 14.5 6.5 14.5 14.5 0 8.1-6.5 14.6-14.5 14.6z" />
			<path id="&lt;Path&gt;" fill-rule="evenodd" class="s0"
				d="m464.7 425.6c-8 0-14.5-6.5-14.5-14.6 0-8 6.5-14.5 14.5-14.5 8.1 0 14.5 6.5 14.5 14.5 0 8.1-6.4 14.6-14.5 14.6z" />
			<path id="&lt;Path&gt;" fill-rule="evenodd" class="s0"
				d="m464.7 382.6c-8 0-14.4-6.5-14.4-14.5 0-8 6.4-14.5 14.4-14.5 8 0 14.5 6.5 14.5 14.5 0 8-6.5 14.5-14.5 14.5z" />
			<path id="&lt;Path&gt;" fill-rule="evenodd" class="s0"
				d="m335.9 382.6c-8 0-14.5-6.5-14.5-14.5 0-8 6.5-14.5 14.5-14.5 8 0 14.4 6.5 14.4 14.5 0 8-6.4 14.5-14.4 14.5z" />
			<path id="&lt;Path&gt;" fill-rule="evenodd" class="s0"
				d="m400.3 489.9c-8 0-14.4-6.4-14.4-14.5 0-8 6.4-14.4 14.4-14.4 8 0 14.4 6.4 14.4 14.4 0 8.1-6.4 14.5-14.4 14.5z" />
			<path id="&lt;Path&gt;" fill-rule="evenodd" class="s0"
				d="m421.8 339.6c-8 0-14.5-6.4-14.5-14.4 0-8 6.5-14.5 14.5-14.5 7.9 0 14.4 6.5 14.4 14.5 0 8-6.5 14.4-14.4 14.4z" />
			<path id="&lt;Path&gt;" fill-rule="evenodd" class="s0"
				d="m378.8 339.6c-8 0-14.4-6.4-14.4-14.4 0-8 6.4-14.5 14.4-14.5 8 0 14.4 6.5 14.4 14.5 0 8-6.4 14.4-14.4 14.4z" />
			<path id="&lt;Path&gt;" fill-rule="evenodd" class="s0"
				d="m314.4 403.9c-7.9 0-14.3-6.4-14.3-14.3 0-8 6.4-14.4 14.3-14.4 7.9 0 14.3 6.4 14.3 14.4 0 7.9-6.4 14.3-14.3 14.3z" />
			<path id="&lt;Path&gt;" fill-rule="evenodd" class="s0"
				d="m357.3 489.8c-7.9 0-14.3-6.4-14.3-14.3 0-8 6.4-14.4 14.3-14.4 8 0 14.4 6.4 14.4 14.4 0 7.9-6.4 14.3-14.4 14.3z" />
			<path id="&lt;Path&gt;" fill-rule="evenodd" class="s0"
				d="m486.1 403.9c-7.9 0-14.3-6.4-14.3-14.3 0-8 6.4-14.4 14.3-14.4 8 0 14.4 6.4 14.4 14.4 0 7.9-6.4 14.3-14.4 14.3z" />
			<path id="&lt;Path&gt;" fill-rule="evenodd" class="s0"
				d="m335.9 468.3c-8 0-14.4-6.4-14.4-14.3 0-8 6.4-14.4 14.4-14.4 7.9 0 14.3 6.4 14.3 14.4 0 7.9-6.4 14.3-14.3 14.3z" />
			<path id="&lt;Path&gt;" fill-rule="evenodd" class="s0"
				d="m443.2 489.8c-7.9 0-14.3-6.4-14.3-14.3 0-8 6.4-14.4 14.3-14.4 7.9 0 14.3 6.4 14.3 14.4 0 7.9-6.4 14.3-14.3 14.3z" />
			<path id="&lt;Path&gt;" fill-rule="evenodd" class="s0"
				d="m464.7 468.3c-7.9 0-14.4-6.4-14.4-14.3 0-8 6.5-14.4 14.4-14.4 7.9 0 14.3 6.4 14.3 14.4 0 7.9-6.4 14.3-14.3 14.3z" />
			<path id="&lt;Path&gt;" fill-rule="evenodd" class="s0"
				d="m486.1 446.8c-7.9 0-14.3-6.4-14.3-14.3 0-7.9 6.4-14.3 14.3-14.3 8 0 14.3 6.4 14.3 14.3 0 7.9-6.3 14.3-14.3 14.3z" />
			<path id="&lt;Path&gt;" fill-rule="evenodd" class="s0"
				d="m314.4 446.8c-7.9 0-14.3-6.4-14.3-14.3 0-7.9 6.4-14.3 14.3-14.3 7.9 0 14.3 6.4 14.3 14.3 0 7.9-6.4 14.3-14.3 14.3z" />
			<path id="&lt;Path&gt;" fill-rule="evenodd" class="s0"
				d="m400.3 317.9c-7.9 0-14.3-6.3-14.3-14.2 0-7.9 6.4-14.2 14.3-14.2 7.9 0 14.2 6.3 14.2 14.2 0 7.9-6.3 14.2-14.2 14.2z" />
			<path id="&lt;Path&gt;" fill-rule="evenodd" class="s0"
				d="m335.9 339.3c-7.9 0-14.3-6.3-14.3-14.1 0-7.9 6.4-14.2 14.3-14.2 7.8 0 14.2 6.3 14.2 14.2 0 7.8-6.4 14.1-14.2 14.1z" />
			<path id="&lt;Path&gt;" fill-rule="evenodd" class="s0"
				d="m421.8 511.1c-7.9 0-14.3-6.4-14.3-14.2 0-7.8 6.4-14.1 14.3-14.1 7.8 0 14.2 6.3 14.2 14.1 0 7.8-6.4 14.2-14.2 14.2z" />
			<path id="&lt;Path&gt;" fill-rule="evenodd" class="s0"
				d="m378.8 511.1c-7.9 0-14.2-6.3-14.2-14.2 0-7.8 6.3-14.1 14.2-14.1 7.9 0 14.2 6.3 14.2 14.1 0 7.9-6.3 14.2-14.2 14.2z" />
			<path id="&lt;Path&gt;" fill-rule="evenodd" class="s0"
				d="m464.7 339.3c-7.9 0-14.2-6.3-14.2-14.1 0-7.9 6.3-14.2 14.2-14.2 7.9 0 14.2 6.3 14.2 14.2 0 7.8-6.3 14.1-14.2 14.1z" />
			<path id="&lt;Path&gt;" fill-rule="evenodd" class="s0"
				d="m486.2 360.8c-7.9 0-14.3-6.3-14.3-14.2 0-7.8 6.4-14.1 14.3-14.1 7.8 0 14.2 6.3 14.2 14.1 0 7.9-6.4 14.2-14.2 14.2z" />
			<path id="&lt;Path&gt;" fill-rule="evenodd" class="s0"
				d="m314.4 360.8c-7.9 0-14.2-6.3-14.2-14.2 0-7.8 6.3-14.1 14.2-14.1 7.9 0 14.2 6.3 14.2 14.1 0 7.9-6.3 14.2-14.2 14.2z" />
			<path id="&lt;Path&gt;" fill-rule="evenodd" class="s0"
				d="m443.2 317.8c-7.8 0-14.1-6.3-14.1-14.1 0-7.8 6.3-14.1 14.1-14.1 7.9 0 14.2 6.3 14.2 14.1 0 7.8-6.3 14.1-14.2 14.1z" />
			<path id="&lt;Path&gt;" fill-rule="evenodd" class="s0"
				d="m357.4 317.8c-7.9 0-14.2-6.3-14.2-14.1 0-7.8 6.3-14.1 14.2-14.1 7.8 0 14.2 6.3 14.2 14.1 0 7.8-6.4 14.1-14.2 14.1z" />
			<path id="&lt;Path&gt;" fill-rule="evenodd" class="s0"
				d="m507.7 425.1c-7.8 0-14.2-6.3-14.2-14.1 0-7.7 6.4-14 14.2-14 7.8 0 14.1 6.3 14.1 14 0 7.8-6.3 14.1-14.1 14.1z" />
			<path id="&lt;Path&gt;" fill-rule="evenodd" class="s0"
				d="m293 425.1c-7.8 0-14.2-6.3-14.2-14.1 0-7.7 6.4-14 14.2-14 7.8 0 14.1 6.3 14.1 14 0 7.8-6.3 14.1-14.1 14.1z" />
			<path id="&lt;Path&gt;" fill-rule="evenodd" class="s0"
				d="m507.7 382.1c-7.8 0-14.1-6.2-14.1-14 0-7.8 6.3-14.1 14.1-14.1 7.8 0 14.1 6.3 14.1 14.1 0 7.8-6.3 14-14.1 14z" />
			<path id="&lt;Path&gt;" fill-rule="evenodd" class="s0"
				d="m293 382.1c-7.8 0-14.1-6.2-14.1-14 0-7.8 6.3-14 14.1-14 7.8 0 14.1 6.2 14.1 14 0 7.8-6.3 14-14.1 14z" />
			<path id="&lt;Path&gt;" fill-rule="evenodd" class="s0"
				d="m314.5 489.5c-7.8 0-14.1-6.3-14.1-14.1 0-7.7 6.3-14 14.1-14 7.8 0 14 6.3 14 14 0 7.8-6.2 14.1-14 14.1z" />
			<path id="&lt;Path&gt;" fill-rule="evenodd" class="s0"
				d="m486.2 489.5c-7.7 0-14-6.3-14-14.1 0-7.7 6.3-14 14-14 7.8 0 14.1 6.3 14.1 14 0 7.8-6.3 14.1-14.1 14.1z" />
			<path id="&lt;Path&gt;" fill-rule="evenodd" class="s0"
				d="m378.9 296.2c-7.7 0-14-6.3-14-14 0-7.7 6.3-14 14-14 7.8 0 14 6.3 14 14 0 7.7-6.2 14-14 14z" />
			<path id="&lt;Path&gt;" fill-rule="evenodd" class="s0"
				d="m336 510.9c-7.8 0-14-6.3-14-14 0-7.7 6.2-14 14-14 7.7 0 14 6.3 14 14 0 7.7-6.3 14-14 14z" />
			<path id="&lt;Path&gt;" fill-rule="evenodd" class="s0"
				d="m400.4 532.4c-7.8 0-14-6.3-14-14 0-7.8 6.2-14 14-14 7.7 0 14 6.2 14 14 0 7.7-6.3 14-14 14z" />
			<path id="&lt;Path&gt;" fill-rule="evenodd" class="s0"
				d="m464.8 510.9c-7.8 0-14-6.3-14-14 0-7.7 6.2-14 14-14 7.7 0 14 6.3 14 14 0 7.7-6.3 14-14 14z" />
			<path id="&lt;Path&gt;" fill-rule="evenodd" class="s0"
				d="m421.9 296.2c-7.8 0-14.1-6.3-14.1-14 0-7.7 6.3-14 14.1-14 7.7 0 14 6.3 14 14 0 7.7-6.3 14-14 14z" />
			<path id="&lt;Path&gt;" fill-rule="evenodd" class="s0"
				d="m293 467.9c-7.7 0-13.9-6.2-13.9-13.9 0-7.8 6.2-14 13.9-14 7.8 0 14 6.2 14 14 0 7.7-6.2 13.9-14 13.9z" />
			<path id="&lt;Path&gt;" fill-rule="evenodd" class="s0"
				d="m507.7 467.9c-7.7 0-13.9-6.2-13.9-13.9 0-7.8 6.2-14 13.9-14 7.8 0 14 6.2 14 14 0 7.7-6.2 13.9-14 13.9z" />
			<path id="&lt;Path&gt;" fill-rule="evenodd" class="s0"
				d="m443.3 532.3c-7.7 0-13.9-6.2-13.9-13.9 0-7.7 6.2-13.9 13.9-13.9 7.7 0 13.9 6.2 13.9 13.9 0 7.7-6.2 13.9-13.9 13.9z" />
			<path id="&lt;Path&gt;" fill-rule="evenodd" class="s0"
				d="m271.6 403.5c-7.7 0-13.9-6.2-13.9-13.9 0-7.7 6.2-14 13.9-14 7.6 0 13.9 6.3 13.9 14 0 7.7-6.3 13.9-13.9 13.9z" />
			<path id="&lt;Path&gt;" fill-rule="evenodd" class="s0"
				d="m529.2 403.5c-7.7 0-13.9-6.2-13.9-13.9 0-7.7 6.2-14 13.9-14 7.7 0 13.9 6.3 13.9 14 0 7.7-6.2 13.9-13.9 13.9z" />
			<path id="&lt;Path&gt;" fill-rule="evenodd" class="s0"
				d="m486.3 317.6c-7.7 0-13.9-6.2-13.9-13.9 0-7.7 6.2-13.9 13.9-13.9 7.6 0 13.9 6.2 13.9 13.9 0 7.7-6.3 13.9-13.9 13.9z" />
			<path id="&lt;Path&gt;" fill-rule="evenodd" class="s0"
				d="m314.5 317.6c-7.7 0-13.9-6.2-13.9-13.9 0-7.7 6.2-13.9 13.9-13.9 7.7 0 13.9 6.2 13.9 13.9 0 7.7-6.2 13.9-13.9 13.9z" />
			<path id="&lt;Path&gt;" fill-rule="evenodd" class="s0"
				d="m357.4 532.3c-7.6 0-13.9-6.2-13.9-13.9 0-7.7 6.3-13.9 13.9-13.9 7.7 0 13.9 6.2 13.9 13.9 0 7.7-6.2 13.9-13.9 13.9z" />
			<path id="&lt;Path&gt;" fill-rule="evenodd" class="s0"
				d="m293 339c-7.7 0-13.8-6.2-13.8-13.8 0-7.7 6.1-13.9 13.8-13.9 7.7 0 13.9 6.2 13.9 13.9 0 7.6-6.2 13.8-13.9 13.8z" />
			<path id="&lt;Path&gt;" fill-rule="evenodd" class="s0"
				d="m507.7 339c-7.7 0-13.8-6.2-13.8-13.8 0-7.7 6.1-13.9 13.8-13.9 7.7 0 13.9 6.2 13.9 13.9 0 7.6-6.2 13.8-13.9 13.8z" />
			<path id="&lt;Path&gt;" fill-rule="evenodd" class="s0"
				d="m335.9 296.1c-7.6 0-13.8-6.2-13.8-13.9 0-7.7 6.2-13.9 13.8-13.9 7.7 0 13.9 6.2 13.9 13.9 0 7.7-6.2 13.9-13.9 13.9z" />
			<path id="&lt;Path&gt;" fill-rule="evenodd" class="s0"
				d="m529.2 446.4c-7.7 0-13.9-6.2-13.9-13.9 0-7.7 6.2-13.9 13.9-13.9 7.6 0 13.8 6.2 13.8 13.9 0 7.7-6.2 13.9-13.8 13.9z" />
			<path id="&lt;Path&gt;" fill-rule="evenodd" class="s0"
				d="m464.8 296.1c-7.7 0-13.9-6.2-13.9-13.9 0-7.7 6.2-13.9 13.9-13.9 7.6 0 13.8 6.2 13.8 13.9 0 7.7-6.2 13.9-13.8 13.9z" />
			<path id="&lt;Path&gt;" fill-rule="evenodd" class="s0"
				d="m271.5 446.4c-7.6 0-13.8-6.2-13.8-13.9 0-7.7 6.2-13.9 13.8-13.9 7.7 0 13.8 6.2 13.8 13.9 0 7.7-6.1 13.9-13.8 13.9z" />
			<path id="&lt;Path&gt;" fill-rule="evenodd" class="s0"
				d="m400.3 274.6c-7.6 0-13.7-6.2-13.7-13.9 0-7.6 6.1-13.8 13.7-13.8 7.6 0 13.8 6.2 13.8 13.8 0 7.7-6.2 13.9-13.8 13.9z" />
			<path id="&lt;Path&gt;" fill-rule="evenodd" class="s0"
				d="m529.1 360.5c-7.6 0-13.7-6.2-13.7-13.9 0-7.6 6.1-13.8 13.7-13.8 7.7 0 13.8 6.2 13.8 13.8 0 7.7-6.1 13.9-13.8 13.9z" />
			<path id="&lt;Path&gt;" fill-rule="evenodd" class="s0"
				d="m271.5 360.4c-7.6 0-13.7-6.1-13.7-13.8 0-7.6 6.1-13.8 13.7-13.8 7.6 0 13.7 6.2 13.7 13.8 0 7.7-6.1 13.8-13.7 13.8z" />
			<path id="&lt;Path&gt;" fill-rule="evenodd" class="s0"
				d="m378.8 553.6c-7.6 0-13.7-6.1-13.7-13.7 0-7.6 6.1-13.8 13.7-13.8 7.6 0 13.7 6.2 13.7 13.8 0 7.6-6.1 13.7-13.7 13.7z" />
			<path id="&lt;Path&gt;" fill-rule="evenodd" class="s0"
				d="m443.2 274.5c-7.5 0-13.7-6.2-13.7-13.8 0-7.5 6.2-13.7 13.7-13.7 7.6 0 13.7 6.2 13.7 13.7 0 7.6-6.1 13.8-13.7 13.8z" />
			<path id="&lt;Path&gt;" fill-rule="evenodd" class="s0"
				d="m421.7 553.6c-7.5 0-13.6-6.1-13.6-13.7 0-7.6 6.1-13.8 13.6-13.8 7.6 0 13.7 6.2 13.7 13.8 0 7.6-6.1 13.7-13.7 13.7z" />
			<path id="&lt;Path&gt;" fill-rule="evenodd" class="s0"
				d="m357.3 274.5c-7.5 0-13.6-6.2-13.6-13.7 0-7.6 6.1-13.8 13.6-13.8 7.6 0 13.7 6.2 13.7 13.8 0 7.5-6.1 13.7-13.7 13.7z" />
			<path id="&lt;Path&gt;" fill-rule="evenodd" class="s0"
				d="m292.9 510.6c-7.5 0-13.6-6.1-13.6-13.7 0-7.5 6.1-13.7 13.6-13.7 7.6 0 13.7 6.2 13.7 13.7 0 7.6-6.1 13.7-13.7 13.7z" />
			<path id="&lt;Path&gt;" fill-rule="evenodd" class="s0"
				d="m507.6 510.6c-7.5 0-13.6-6.1-13.6-13.7 0-7.5 6.1-13.7 13.6-13.7 7.6 0 13.7 6.2 13.7 13.7 0 7.6-6.1 13.7-13.7 13.7z" />
			<path id="&lt;Path&gt;" fill-rule="evenodd" class="s0"
				d="m314.4 532.1c-7.5 0-13.6-6.1-13.6-13.7 0-7.6 6.1-13.7 13.6-13.7 7.5 0 13.6 6.1 13.6 13.7 0 7.6-6.1 13.7-13.6 13.7z" />
			<path id="&lt;Path&gt;" fill-rule="evenodd" class="s0"
				d="m486.2 532.1c-7.6 0-13.7-6.1-13.7-13.7 0-7.6 6.1-13.7 13.7-13.7 7.5 0 13.6 6.1 13.6 13.7 0 7.6-6.1 13.7-13.6 13.7z" />
			<path id="&lt;Path&gt;" fill-rule="evenodd" class="s0"
				d="m271.4 489.1c-7.5 0-13.6-6.1-13.6-13.6 0-7.6 6.1-13.6 13.6-13.6 7.6 0 13.6 6 13.6 13.6 0 7.5-6 13.6-13.6 13.6z" />
			<path id="&lt;Path&gt;" fill-rule="evenodd" class="s0"
				d="m529.1 489.1c-7.5 0-13.6-6.1-13.6-13.6 0-7.6 6.1-13.6 13.6-13.6 7.5 0 13.6 6 13.6 13.6 0 7.5-6.1 13.6-13.6 13.6z" />
			<path id="&lt;Path&gt;" fill-rule="evenodd" class="s0"
				d="m250 424.6c-7.5 0-13.6-6.1-13.6-13.6 0-7.4 6.1-13.5 13.6-13.5 7.5 0 13.5 6.1 13.5 13.5 0 7.5-6 13.6-13.5 13.6z" />
			<path id="&lt;Path&gt;" fill-rule="evenodd" class="s0"
				d="m550.6 424.6c-7.5 0-13.6-6.1-13.6-13.6 0-7.4 6.1-13.5 13.6-13.5 7.5 0 13.5 6.1 13.5 13.5 0 7.5-6 13.6-13.5 13.6z" />
			<path id="&lt;Path&gt;" fill-rule="evenodd" class="s0"
				d="m464.7 553.3c-7.5 0-13.5-6-13.5-13.4 0-7.5 6-13.5 13.5-13.5 7.5 0 13.5 6 13.5 13.5 0 7.4-6 13.4-13.5 13.4z" />
			<path id="&lt;Path&gt;" fill-rule="evenodd" class="s0"
				d="m250 381.6c-7.5 0-13.5-6.1-13.5-13.5 0-7.4 6-13.5 13.5-13.5 7.5 0 13.5 6.1 13.5 13.5 0 7.4-6 13.5-13.5 13.5z" />
			<path id="&lt;Path&gt;" fill-rule="evenodd" class="s0"
				d="m550.6 381.6c-7.5 0-13.6-6.1-13.6-13.5 0-7.4 6.1-13.5 13.6-13.5 7.5 0 13.5 6.1 13.5 13.5 0 7.4-6 13.5-13.5 13.5z" />
			<path id="&lt;Path&gt;" fill-rule="evenodd" class="s0"
				d="m335.9 553.3c-7.5 0-13.6-6-13.6-13.4 0-7.5 6.1-13.5 13.6-13.5 7.5 0 13.5 6 13.5 13.5 0 7.4-6 13.4-13.5 13.4z" />
			<path id="&lt;Path&gt;" fill-rule="evenodd" class="s0"
				d="m507.6 295.6c-7.4 0-13.4-6-13.4-13.4 0-7.4 6-13.4 13.4-13.4 7.5 0 13.5 6 13.5 13.4 0 7.4-6 13.4-13.5 13.4z" />
			<path id="&lt;Path&gt;" fill-rule="evenodd" class="s0"
				d="m250 467.3c-7.4 0-13.4-5.9-13.4-13.3 0-7.4 6-13.4 13.4-13.4 7.5 0 13.5 6 13.5 13.4 0 7.4-6 13.3-13.5 13.3z" />
			<path id="&lt;Path&gt;" fill-rule="evenodd" class="s0"
				d="m550.6 467.3c-7.4 0-13.4-5.9-13.4-13.3 0-7.4 6-13.4 13.4-13.4 7.4 0 13.4 6 13.4 13.4 0 7.4-6 13.3-13.4 13.3z" />
			<path id="&lt;Path&gt;" fill-rule="evenodd" class="s0"
				d="m271.5 317.1c-7.4 0-13.4-6-13.4-13.4 0-7.4 6-13.4 13.4-13.4 7.4 0 13.4 6 13.4 13.4 0 7.4-6 13.4-13.4 13.4z" />
			<path id="&lt;Path&gt;" fill-rule="evenodd" class="s0"
				d="m529.1 317.1c-7.4 0-13.4-6-13.4-13.4 0-7.4 6-13.4 13.4-13.4 7.5 0 13.5 6 13.5 13.4 0 7.4-6 13.4-13.5 13.4z" />
			<path id="&lt;Path&gt;" fill-rule="evenodd" class="s0"
				d="m378.9 252.6c-7.5 0-13.5-5.9-13.5-13.3 0-7.4 6-13.4 13.5-13.4 7.4 0 13.4 6 13.4 13.4 0 7.4-6 13.3-13.4 13.3z" />
			<path id="&lt;Path&gt;" fill-rule="evenodd" class="s0"
				d="m421.8 252.6c-7.4 0-13.4-5.9-13.4-13.3 0-7.4 6-13.4 13.4-13.4 7.4 0 13.4 6 13.4 13.4 0 7.4-6 13.3-13.4 13.3z" />
			<path id="&lt;Path&gt;" fill-rule="evenodd" class="s0"
				d="m293 295.6c-7.5 0-13.5-6-13.5-13.4 0-7.4 6-13.4 13.5-13.4 7.4 0 13.4 6 13.4 13.4 0 7.4-6 13.4-13.4 13.4z" />
			<path id="&lt;Path&gt;" fill-rule="evenodd" class="s0"
				d="m400.4 574.7c-7.4 0-13.4-6-13.4-13.4 0-7.3 6-13.3 13.4-13.3 7.3 0 13.3 6 13.3 13.3 0 7.4-6 13.4-13.3 13.4z" />
			<path id="&lt;Path&gt;" fill-rule="evenodd" class="s0"
				d="m486.2 274.1c-7.4 0-13.3-6-13.3-13.4 0-7.3 5.9-13.3 13.3-13.3 7.4 0 13.4 6 13.4 13.3 0 7.4-6 13.4-13.4 13.4z" />
			<path id="&lt;Path&gt;" fill-rule="evenodd" class="s0"
				d="m314.5 274.1c-7.4 0-13.4-6-13.4-13.4 0-7.3 6-13.3 13.4-13.3 7.4 0 13.4 6 13.4 13.3 0 7.4-6 13.4-13.4 13.4z" />
			<path id="&lt;Path&gt;" fill-rule="evenodd" class="s0"
				d="m443.3 574.6c-7.3 0-13.3-5.9-13.3-13.3 0-7.3 6-13.2 13.3-13.2 7.4 0 13.3 5.9 13.3 13.2 0 7.4-5.9 13.3-13.3 13.3z" />
			<path id="&lt;Path&gt;" fill-rule="evenodd" class="s0"
				d="m250.1 338.4c-7.4 0-13.3-5.9-13.3-13.2 0-7.4 5.9-13.3 13.3-13.3 7.3 0 13.3 5.9 13.3 13.3 0 7.3-6 13.2-13.3 13.2z" />
			<path id="&lt;Path&gt;" fill-rule="evenodd" class="s0"
				d="m357.4 574.6c-7.3 0-13.2-5.9-13.2-13.3 0-7.3 5.9-13.2 13.2-13.2 7.4 0 13.3 5.9 13.3 13.2 0 7.4-5.9 13.3-13.3 13.3z" />
			<path id="&lt;Path&gt;" fill-rule="evenodd" class="s0"
				d="m550.7 338.4c-7.4 0-13.3-5.9-13.3-13.2 0-7.4 5.9-13.3 13.3-13.3 7.3 0 13.3 5.9 13.3 13.3 0 7.3-6 13.2-13.3 13.2z" />
			<path id="&lt;Path&gt;" fill-rule="evenodd" class="s0"
				d="m228.6 402.8c-7.3 0-13.2-5.9-13.2-13.2 0-7.4 5.9-13.3 13.2-13.3 7.3 0 13.3 5.9 13.3 13.3 0 7.3-6 13.2-13.3 13.2z" />
			<path id="&lt;Path&gt;" fill-rule="evenodd" class="s0"
				d="m572.2 402.8c-7.4 0-13.3-5.9-13.3-13.2 0-7.4 5.9-13.3 13.3-13.3 7.3 0 13.2 5.9 13.2 13.3 0 7.3-5.9 13.2-13.2 13.2z" />
			<path id="&lt;Path&gt;" fill-rule="evenodd" class="s0"
				d="m336 252.5c-7.3 0-13.2-5.9-13.2-13.2 0-7.3 5.9-13.3 13.2-13.3 7.3 0 13.2 6 13.2 13.3 0 7.3-5.9 13.2-13.2 13.2z" />
			<path id="&lt;Path&gt;" fill-rule="evenodd" class="s0"
				d="m464.8 252.5c-7.3 0-13.2-5.9-13.2-13.2 0-7.3 5.9-13.3 13.2-13.3 7.3 0 13.2 6 13.2 13.3 0 7.3-5.9 13.2-13.2 13.2z" />
			<path id="&lt;Path&gt;" fill-rule="evenodd" class="s0"
				d="m271.6 531.6c-7.3 0-13.2-5.9-13.2-13.2 0-7.3 5.9-13.2 13.2-13.2 7.2 0 13.1 5.9 13.1 13.2 0 7.3-5.9 13.2-13.1 13.2z" />
			<path id="&lt;Path&gt;" fill-rule="evenodd" class="s0"
				d="m529.2 531.6c-7.3 0-13.2-5.9-13.2-13.2 0-7.3 5.9-13.2 13.2-13.2 7.3 0 13.2 5.9 13.2 13.2 0 7.3-5.9 13.2-13.2 13.2z" />
			<path id="&lt;Path&gt;" fill-rule="evenodd" class="s0"
				d="m572.1 445.7c-7.3 0-13.1-5.9-13.1-13.2 0-7.3 5.8-13.2 13.1-13.2 7.3 0 13.2 5.9 13.2 13.2 0 7.3-5.9 13.2-13.2 13.2z" />
			<path id="&lt;Path&gt;" fill-rule="evenodd" class="s0"
				d="m228.6 445.7c-7.3 0-13.2-5.9-13.2-13.2 0-7.3 5.9-13.2 13.2-13.2 7.3 0 13.2 5.9 13.2 13.2 0 7.3-5.9 13.2-13.2 13.2z" />
			<path id="&lt;Path&gt;" fill-rule="evenodd" class="s0"
				d="m293 553c-7.3 0-13.1-5.9-13.1-13.1 0-7.3 5.8-13.2 13.1-13.2 7.3 0 13.2 5.9 13.2 13.2 0 7.2-5.9 13.1-13.2 13.1z" />
			<path id="&lt;Path&gt;" fill-rule="evenodd" class="s0"
				d="m507.7 553c-7.3 0-13.1-5.9-13.1-13.1 0-7.3 5.8-13.2 13.1-13.2 7.3 0 13.2 5.9 13.2 13.2 0 7.2-5.9 13.1-13.2 13.1z" />
			<path id="&lt;Path&gt;" fill-rule="evenodd" class="s0"
				d="m228.6 359.8c-7.3 0-13.1-5.9-13.1-13.2 0-7.2 5.8-13.1 13.1-13.1 7.2 0 13.1 5.9 13.1 13.1 0 7.3-5.9 13.2-13.1 13.2z" />
			<path id="&lt;Path&gt;" fill-rule="evenodd" class="s0"
				d="m250.1 510.1c-7.3 0-13.1-5.9-13.1-13.2 0-7.3 5.8-13.1 13.1-13.1 7.2 0 13 5.8 13 13.1 0 7.3-5.8 13.2-13 13.2z" />
			<path id="&lt;Path&gt;" fill-rule="evenodd" class="s0"
				d="m550.6 510.1c-7.2 0-13.1-5.9-13.1-13.2 0-7.3 5.9-13.1 13.1-13.1 7.3 0 13.1 5.8 13.1 13.1 0 7.3-5.8 13.2-13.1 13.2z" />
			<path id="&lt;Path&gt;" fill-rule="evenodd" class="s0"
				d="m572.1 359.8c-7.2 0-13.1-5.9-13.1-13.2 0-7.2 5.9-13.1 13.1-13.1 7.2 0 13.1 5.9 13.1 13.1 0 7.3-5.9 13.2-13.1 13.2z" />
			<path id="&lt;Path&gt;" fill-rule="evenodd" class="s0"
				d="m400.3 230.9c-7.2 0-13-5.8-13-13.1 0-7.2 5.8-13.1 13-13.1 7.2 0 13 5.9 13 13.1 0 7.3-5.8 13.1-13 13.1z" />
			<path id="&lt;Path&gt;" fill-rule="evenodd" class="s0"
				d="m378.8 595.9c-7.2 0-13-5.9-13-13.1 0-7.2 5.8-13.1 13-13.1 7.2 0 13 5.9 13 13.1 0 7.2-5.8 13.1-13 13.1z" />
			<path id="&lt;Path&gt;" fill-rule="evenodd" class="s0"
				d="m421.8 595.9c-7.2 0-13-5.9-13-13.1 0-7.2 5.8-13.1 13-13.1 7.1 0 12.9 5.9 12.9 13.1 0 7.2-5.8 13.1-12.9 13.1z" />
			<path id="&lt;Path&gt;" fill-rule="evenodd" class="s0"
				d="m314.4 574.4c-7.2 0-13-5.9-13-13.1 0-7.2 5.8-13 13-13 7.2 0 13 5.8 13 13 0 7.2-5.8 13.1-13 13.1z" />
			<path id="&lt;Path&gt;" fill-rule="evenodd" class="s0"
				d="m486.2 574.4c-7.2 0-13-5.9-13-13.1 0-7.2 5.8-13 13-13 7.2 0 13 5.8 13 13 0 7.2-5.8 13.1-13 13.1z" />
			<path id="&lt;Path&gt;" fill-rule="evenodd" class="s0"
				d="m443.2 230.8c-7.1 0-12.9-5.8-12.9-13 0-7.2 5.8-13 12.9-13 7.2 0 13 5.8 13 13 0 7.2-5.8 13-13 13z" />
			<path id="&lt;Path&gt;" fill-rule="evenodd" class="s0"
				d="m357.3 230.8c-7.1 0-12.9-5.8-12.9-13 0-7.2 5.8-13 12.9-13 7.2 0 13 5.8 13 13 0 7.2-5.8 13-13 13z" />
			<path id="&lt;Path&gt;" fill-rule="evenodd" class="s0"
				d="m529.1 273.7c-7.1 0-12.9-5.8-12.9-12.9 0-7.2 5.8-13 12.9-13 7.1 0 12.9 5.8 12.9 13 0 7.1-5.8 12.9-12.9 12.9z" />
			<path id="&lt;Path&gt;" fill-rule="evenodd" class="s0"
				d="m228.5 488.4c-7.1 0-12.9-5.8-12.9-12.9 0-7.2 5.8-13 12.9-13 7.1 0 12.9 5.8 12.9 13 0 7.1-5.8 12.9-12.9 12.9z" />
			<path id="&lt;Path&gt;" fill-rule="evenodd" class="s0"
				d="m572 488.4c-7.1 0-12.9-5.8-12.9-12.9 0-7.2 5.8-13 12.9-13 7.2 0 12.9 5.8 12.9 13 0 7.1-5.7 12.9-12.9 12.9z" />
			<path id="&lt;Path&gt;" fill-rule="evenodd" class="s0"
				d="m271.4 273.7c-7.1 0-12.9-5.8-12.9-12.9 0-7.2 5.8-13 12.9-13 7.2 0 12.9 5.8 12.9 13 0 7.1-5.7 12.9-12.9 12.9z" />
			<path id="&lt;Path&gt;" fill-rule="evenodd" class="s0"
				d="m550.6 295.1c-7.2 0-12.9-5.8-12.9-12.9 0-7.1 5.7-12.8 12.9-12.8 7.1 0 12.8 5.7 12.8 12.8 0 7.1-5.7 12.9-12.8 12.9z" />
			<path id="&lt;Path&gt;" fill-rule="evenodd" class="s0"
				d="m250 295.1c-7.1 0-12.9-5.8-12.9-12.9 0-7.1 5.8-12.8 12.9-12.8 7.1 0 12.8 5.7 12.8 12.8 0 7.1-5.7 12.9-12.8 12.9z" />
			<path id="&lt;Path&gt;" fill-rule="evenodd" class="s0"
				d="m292.9 252.1c-7.1 0-12.8-5.8-12.8-12.8 0-7.1 5.7-12.8 12.8-12.8 7.1 0 12.9 5.7 12.9 12.8 0 7-5.8 12.8-12.9 12.8z" />
			<path id="&lt;Path&gt;" fill-rule="evenodd" class="s0"
				d="m507.6 252.1c-7.1 0-12.8-5.8-12.8-12.8 0-7.1 5.7-12.8 12.8-12.8 7.1 0 12.9 5.7 12.9 12.8 0 7-5.8 12.8-12.9 12.8z" />
			<path id="&lt;Path&gt;" fill-rule="evenodd" class="s0"
				d="m593.5 423.8c-7.1 0-12.8-5.7-12.8-12.8 0-7 5.7-12.7 12.8-12.7 7.1 0 12.8 5.7 12.8 12.7 0 7.1-5.7 12.8-12.8 12.8z" />
			<path id="&lt;Path&gt;" fill-rule="evenodd" class="s0"
				d="m207 423.8c-7 0-12.8-5.7-12.8-12.8 0-7 5.8-12.7 12.8-12.7 7.1 0 12.9 5.7 12.9 12.7 0 7.1-5.8 12.8-12.9 12.8z" />
			<path id="&lt;Path&gt;" fill-rule="evenodd" class="s0"
				d="m464.7 595.5c-7.1 0-12.8-5.7-12.8-12.7 0-7 5.7-12.7 12.8-12.7 7.1 0 12.8 5.7 12.8 12.7 0 7-5.7 12.7-12.8 12.7z" />
			<path id="&lt;Path&gt;" fill-rule="evenodd" class="s0"
				d="m207.1 380.8c-7.1 0-12.8-5.7-12.8-12.7 0-7 5.7-12.7 12.8-12.7 7 0 12.7 5.7 12.7 12.7 0 7-5.7 12.7-12.7 12.7z" />
			<path id="&lt;Path&gt;" fill-rule="evenodd" class="s0"
				d="m593.5 380.8c-7.1 0-12.8-5.7-12.8-12.7 0-7 5.7-12.7 12.8-12.7 7.1 0 12.8 5.7 12.8 12.7 0 7-5.7 12.7-12.8 12.7z" />
			<path id="&lt;Path&gt;" fill-rule="evenodd" class="s0"
				d="m572.1 316.4c-7.1 0-12.8-5.7-12.8-12.7 0-7 5.7-12.7 12.8-12.7 7 0 12.7 5.7 12.7 12.7 0 7-5.7 12.7-12.7 12.7z" />
			<path id="&lt;Path&gt;" fill-rule="evenodd" class="s0"
				d="m335.9 595.5c-7.1 0-12.8-5.7-12.8-12.7 0-7 5.7-12.7 12.8-12.7 7.1 0 12.8 5.7 12.8 12.7 0 7-5.7 12.7-12.8 12.7z" />
			<path id="&lt;Path&gt;" fill-rule="evenodd" class="s0"
				d="m228.6 316.4c-7.1 0-12.8-5.7-12.8-12.7 0-7 5.7-12.7 12.8-12.7 7 0 12.7 5.7 12.7 12.7 0 7-5.7 12.7-12.7 12.7z" />
			<path id="&lt;Path&gt;" fill-rule="evenodd" class="s0"
				d="m314.5 230.4c-7 0-12.7-5.6-12.7-12.6 0-7 5.7-12.6 12.7-12.6 7 0 12.6 5.6 12.6 12.6 0 7-5.6 12.6-12.6 12.6z" />
			<path id="&lt;Path&gt;" fill-rule="evenodd" class="s0"
				d="m486.2 230.4c-7 0-12.7-5.6-12.7-12.6 0-7 5.7-12.6 12.7-12.6 7 0 12.7 5.6 12.7 12.6 0 7-5.7 12.6-12.7 12.6z" />
			<path id="&lt;Path&gt;" fill-rule="evenodd" class="s0"
				d="m207.1 466.6c-6.9 0-12.6-5.7-12.6-12.6 0-7 5.7-12.6 12.6-12.6 7 0 12.7 5.6 12.7 12.6 0 6.9-5.7 12.6-12.7 12.6z" />
			<path id="&lt;Path&gt;" fill-rule="evenodd" class="s0"
				d="m593.6 466.6c-7 0-12.6-5.7-12.6-12.6 0-7 5.6-12.6 12.6-12.6 7 0 12.6 5.6 12.6 12.6 0 6.9-5.6 12.6-12.6 12.6z" />
			<path id="&lt;Path&gt;" fill-rule="evenodd" class="s0"
				d="m378.9 208.9c-6.9 0-12.6-5.6-12.6-12.6 0-6.9 5.7-12.5 12.6-12.5 7 0 12.6 5.6 12.6 12.5 0 7-5.6 12.6-12.6 12.6z" />
			<path id="&lt;Path&gt;" fill-rule="evenodd" class="s0"
				d="m421.9 208.9c-7 0-12.6-5.6-12.6-12.6 0-6.9 5.6-12.5 12.6-12.5 6.9 0 12.5 5.6 12.5 12.5 0 7-5.6 12.6-12.5 12.6z" />
			<path id="&lt;Path&gt;" fill-rule="evenodd" class="s0"
				d="m400.4 616.8c-6.9 0-12.5-5.6-12.5-12.5 0-7 5.6-12.6 12.5-12.6 6.9 0 12.5 5.6 12.5 12.6 0 6.9-5.6 12.5-12.5 12.5z" />
			<path id="&lt;Path&gt;" fill-rule="evenodd" class="s0"
				d="m250.1 552.4c-6.9 0-12.5-5.6-12.5-12.5 0-7 5.6-12.6 12.5-12.6 6.9 0 12.5 5.6 12.5 12.6 0 6.9-5.6 12.5-12.5 12.5z" />
			<path id="&lt;Path&gt;" fill-rule="evenodd" class="s0"
				d="m550.7 552.4c-7 0-12.6-5.6-12.6-12.5 0-7 5.6-12.6 12.6-12.6 6.9 0 12.5 5.6 12.5 12.6 0 6.9-5.6 12.5-12.5 12.5z" />
			<path id="&lt;Path&gt;" fill-rule="evenodd" class="s0"
				d="m593.6 337.7c-6.9 0-12.5-5.6-12.5-12.5 0-7 5.6-12.6 12.5-12.6 7 0 12.6 5.6 12.6 12.6 0 6.9-5.6 12.5-12.6 12.5z" />
			<path id="&lt;Path&gt;" fill-rule="evenodd" class="s0"
				d="m529.2 573.8c-6.9 0-12.5-5.6-12.5-12.5 0-6.9 5.6-12.5 12.5-12.5 6.9 0 12.5 5.6 12.5 12.5 0 6.9-5.6 12.5-12.5 12.5z" />
			<path id="&lt;Path&gt;" fill-rule="evenodd" class="s0"
				d="m271.6 573.8c-6.9 0-12.5-5.6-12.5-12.5 0-6.9 5.6-12.5 12.5-12.5 6.9 0 12.5 5.6 12.5 12.5 0 6.9-5.6 12.5-12.5 12.5z" />
			<path id="&lt;Path&gt;" fill-rule="evenodd" class="s0"
				d="m207.2 337.7c-7 0-12.5-5.6-12.5-12.5 0-7 5.5-12.6 12.5-12.6 6.9 0 12.5 5.6 12.5 12.6 0 6.9-5.6 12.5-12.5 12.5z" />
			<path id="&lt;Path&gt;" fill-rule="evenodd" class="s0"
				d="m228.6 530.9c-6.9 0-12.4-5.6-12.4-12.5 0-6.9 5.5-12.5 12.4-12.5 6.9 0 12.5 5.6 12.5 12.5 0 6.9-5.6 12.5-12.5 12.5z" />
			<path id="&lt;Path&gt;" fill-rule="evenodd" class="s0"
				d="m572.1 530.9c-6.9 0-12.4-5.6-12.4-12.5 0-6.9 5.5-12.5 12.4-12.5 6.9 0 12.5 5.6 12.5 12.5 0 6.9-5.6 12.5-12.5 12.5z" />
			<path id="&lt;Path&gt;" fill-rule="evenodd" class="s0"
				d="m357.4 616.7c-6.9 0-12.4-5.5-12.4-12.4 0-6.9 5.5-12.5 12.4-12.5 6.9 0 12.5 5.6 12.5 12.5 0 6.9-5.6 12.4-12.5 12.4z" />
			<path id="&lt;Path&gt;" fill-rule="evenodd" class="s0"
				d="m443.3 616.7c-6.9 0-12.4-5.5-12.4-12.4 0-6.9 5.5-12.5 12.4-12.5 6.9 0 12.5 5.6 12.5 12.5 0 6.9-5.6 12.4-12.5 12.4z" />
			<path id="&lt;Path&gt;" fill-rule="evenodd" class="s0"
				d="m464.8 208.8c-6.9 0-12.4-5.6-12.4-12.5 0-6.9 5.5-12.4 12.4-12.4 6.8 0 12.4 5.5 12.4 12.4 0 6.9-5.6 12.5-12.4 12.5z" />
			<path id="&lt;Path&gt;" fill-rule="evenodd" class="s0"
				d="m335.9 208.8c-6.8 0-12.4-5.6-12.4-12.5 0-6.9 5.6-12.4 12.4-12.4 6.9 0 12.5 5.5 12.5 12.4 0 6.9-5.6 12.5-12.5 12.5z" />
			<path id="&lt;Path&gt;" fill-rule="evenodd" class="s0"
				d="m507.7 595.2c-6.9 0-12.4-5.5-12.4-12.4 0-6.9 5.5-12.5 12.4-12.5 6.9 0 12.4 5.6 12.4 12.5 0 6.9-5.5 12.4-12.4 12.4z" />
			<path id="&lt;Path&gt;" fill-rule="evenodd" class="s0"
				d="m293 595.2c-6.9 0-12.4-5.5-12.4-12.4 0-6.9 5.5-12.4 12.4-12.4 6.8 0 12.4 5.5 12.4 12.4 0 6.9-5.6 12.4-12.4 12.4z" />
			<path id="&lt;Path&gt;" fill-rule="evenodd" class="s0"
				d="m615 402c-6.8 0-12.3-5.6-12.3-12.4 0-6.9 5.5-12.5 12.3-12.5 6.9 0 12.4 5.6 12.4 12.5 0 6.8-5.5 12.4-12.4 12.4z" />
			<path id="&lt;Path&gt;" fill-rule="evenodd" class="s0"
				d="m185.6 401.9c-6.8 0-12.3-5.5-12.3-12.3 0-6.9 5.5-12.4 12.3-12.4 6.8 0 12.3 5.5 12.3 12.4 0 6.8-5.5 12.3-12.3 12.3z" />
			<path id="&lt;Path&gt;" fill-rule="evenodd" class="s0"
				d="m207.1 509.3c-6.8 0-12.3-5.5-12.3-12.4 0-6.8 5.5-12.4 12.3-12.4 6.8 0 12.3 5.6 12.3 12.4 0 6.9-5.5 12.4-12.3 12.4z" />
			<path id="&lt;Path&gt;" fill-rule="evenodd" class="s0"
				d="m593.5 509.3c-6.8 0-12.3-5.5-12.3-12.4 0-6.8 5.5-12.4 12.3-12.4 6.8 0 12.3 5.6 12.3 12.4 0 6.9-5.5 12.4-12.3 12.4z" />
			<path id="&lt;Path&gt;" fill-rule="evenodd" class="s0"
				d="m185.6 444.8c-6.8 0-12.3-5.5-12.3-12.3 0-6.8 5.5-12.3 12.3-12.3 6.8 0 12.2 5.5 12.2 12.3 0 6.8-5.4 12.3-12.2 12.3z" />
			<path id="&lt;Path&gt;" fill-rule="evenodd" class="s0"
				d="m615 444.8c-6.8 0-12.3-5.5-12.3-12.3 0-6.8 5.5-12.3 12.3-12.3 6.8 0 12.2 5.5 12.2 12.3 0 6.8-5.4 12.3-12.2 12.3z" />
			<path id="&lt;Path&gt;" fill-rule="evenodd" class="s0"
				d="m550.6 251.5c-6.8 0-12.3-5.4-12.3-12.2 0-6.8 5.5-12.3 12.3-12.3 6.7 0 12.2 5.5 12.2 12.3 0 6.8-5.5 12.2-12.2 12.2z" />
			<path id="&lt;Path&gt;" fill-rule="evenodd" class="s0"
				d="m250 251.5c-6.8 0-12.2-5.4-12.2-12.2 0-6.8 5.4-12.3 12.2-12.3 6.7 0 12.2 5.5 12.2 12.3 0 6.8-5.5 12.2-12.2 12.2z" />
			<path id="&lt;Path&gt;" fill-rule="evenodd" class="s0"
				d="m228.5 273c-6.7 0-12.2-5.5-12.2-12.2 0-6.8 5.5-12.3 12.2-12.3 6.8 0 12.2 5.5 12.2 12.3 0 6.7-5.4 12.2-12.2 12.2z" />
			<path id="&lt;Path&gt;" fill-rule="evenodd" class="s0"
				d="m572 273c-6.7 0-12.2-5.5-12.2-12.2 0-6.8 5.5-12.3 12.2-12.3 6.8 0 12.2 5.5 12.2 12.3 0 6.7-5.4 12.2-12.2 12.2z" />
			<path id="&lt;Path&gt;" fill-rule="evenodd" class="s0"
				d="m615 358.8c-6.8 0-12.2-5.4-12.2-12.2 0-6.7 5.4-12.1 12.2-12.1 6.7 0 12.1 5.4 12.1 12.1 0 6.8-5.4 12.2-12.1 12.2z" />
			<path id="&lt;Path&gt;" fill-rule="evenodd" class="s0"
				d="m185.6 358.8c-6.8 0-12.2-5.4-12.2-12.2 0-6.7 5.4-12.1 12.2-12.1 6.7 0 12.1 5.4 12.1 12.1 0 6.8-5.4 12.2-12.1 12.2z" />
			<path id="&lt;Path&gt;" fill-rule="evenodd" class="s0"
				d="m529.1 230c-6.7 0-12.2-5.5-12.2-12.2 0-6.7 5.5-12.2 12.2-12.2 6.7 0 12.2 5.5 12.2 12.2 0 6.7-5.5 12.2-12.2 12.2z" />
			<path id="&lt;Path&gt;" fill-rule="evenodd" class="s0"
				d="m314.4 616.4c-6.7 0-12.2-5.4-12.2-12.1 0-6.8 5.5-12.2 12.2-12.2 6.7 0 12.2 5.4 12.2 12.2 0 6.7-5.5 12.1-12.2 12.1z" />
			<path id="&lt;Path&gt;" fill-rule="evenodd" class="s0"
				d="m271.4 230c-6.7 0-12.1-5.5-12.1-12.2 0-6.7 5.4-12.2 12.1-12.2 6.8 0 12.2 5.5 12.2 12.2 0 6.7-5.4 12.2-12.2 12.2z" />
			<path id="&lt;Path&gt;" fill-rule="evenodd" class="s0"
				d="m486.1 616.4c-6.7 0-12.1-5.4-12.1-12.1 0-6.8 5.4-12.2 12.1-12.2 6.8 0 12.2 5.4 12.2 12.2 0 6.7-5.4 12.1-12.2 12.1z" />
			<path id="&lt;Path&gt;" fill-rule="evenodd" class="s0"
				d="m207.1 294.2c-6.7 0-12.1-5.3-12.1-12 0-6.6 5.4-12 12.1-12 6.6 0 12 5.4 12 12 0 6.7-5.4 12-12 12z" />
			<path id="&lt;Path&gt;" fill-rule="evenodd" class="s0"
				d="m593.5 294.2c-6.7 0-12.1-5.3-12.1-12 0-6.6 5.4-12 12.1-12 6.7 0 12.1 5.4 12.1 12 0 6.7-5.4 12-12.1 12z" />
			<path id="&lt;Path&gt;" fill-rule="evenodd" class="s0"
				d="m400.3 187c-6.7 0-12.2-5.4-12.2-12.1 0-6.7 5.5-12.1 12.2-12.1 6.7 0 12.1 5.4 12.1 12.1 0 6.7-5.4 12.1-12.1 12.1z" />
			<path id="&lt;Path&gt;" fill-rule="evenodd" class="s0"
				d="m615 487.4c-6.7 0-12-5.3-12-12 0-6.6 5.3-11.9 12-11.9 6.7 0 12 5.3 12 11.9 0 6.7-5.3 12-12 12z" />
			<path id="&lt;Path&gt;" fill-rule="evenodd" class="s0"
				d="m421.8 637.7c-6.7 0-12.1-5.3-12.1-12 0-6.6 5.4-11.9 12.1-11.9 6.6 0 12 5.3 12 11.9 0 6.7-5.4 12-12 12z" />
			<path id="&lt;Path&gt;" fill-rule="evenodd" class="s0"
				d="m378.8 637.7c-6.6 0-12-5.3-12-12 0-6.6 5.4-11.9 12-11.9 6.7 0 12.1 5.3 12.1 11.9 0 6.7-5.4 12-12.1 12z" />
			<path id="&lt;Path&gt;" fill-rule="evenodd" class="s0"
				d="m357.4 186.8c-6.7 0-12.1-5.3-12.1-11.9 0-6.6 5.4-12 12.1-12 6.6 0 12 5.4 12 12 0 6.6-5.4 11.9-12 11.9z" />
			<path id="&lt;Path&gt;" fill-rule="evenodd" class="s0"
				d="m443.2 186.8c-6.6 0-12-5.3-12-11.9 0-6.7 5.4-12 12-12 6.7 0 12.1 5.3 12.1 12 0 6.6-5.4 11.9-12.1 11.9z" />
			<path id="&lt;Path&gt;" fill-rule="evenodd" class="s0"
				d="m185.6 487.4c-6.7 0-12-5.3-12-12 0-6.6 5.3-11.9 12-11.9 6.7 0 12 5.3 12 11.9 0 6.7-5.3 12-12 12z" />
			<path id="&lt;Path&gt;" fill-rule="evenodd" class="s0"
				d="m507.7 208.3c-6.6 0-12-5.4-12-12 0-6.6 5.4-11.9 12-11.9 6.6 0 12 5.3 12 11.9 0 6.6-5.4 12-12 12z" />
			<path id="&lt;Path&gt;" fill-rule="evenodd" class="s0"
				d="m293 208.3c-6.6 0-12-5.4-12-12 0-6.6 5.4-11.9 12-11.9 6.6 0 12 5.3 12 11.9 0 6.6-5.4 12-12 12z" />
			<path id="&lt;Path&gt;" fill-rule="evenodd" class="s0"
				d="m615.1 315.5c-6.6 0-11.8-5.3-11.8-11.8 0-6.6 5.2-11.8 11.8-11.8 6.5 0 11.8 5.2 11.8 11.8 0 6.5-5.3 11.8-11.8 11.8z" />
			<path id="&lt;Path&gt;" fill-rule="evenodd" class="s0"
				d="m185.7 315.5c-6.6 0-11.8-5.3-11.8-11.8 0-6.6 5.2-11.8 11.8-11.8 6.5 0 11.8 5.2 11.8 11.8 0 6.5-5.3 11.8-11.8 11.8z" />
			<path id="&lt;Path&gt;" fill-rule="evenodd" class="s0"
				d="m228.6 573.1c-6.5 0-11.8-5.3-11.8-11.8 0-6.5 5.3-11.8 11.8-11.8 6.6 0 11.8 5.3 11.8 11.8 0 6.5-5.2 11.8-11.8 11.8z" />
			<path id="&lt;Path&gt;" fill-rule="evenodd" class="s0"
				d="m572.2 573.1c-6.6 0-11.8-5.3-11.8-11.8 0-6.5 5.2-11.8 11.8-11.8 6.5 0 11.7 5.3 11.7 11.8 0 6.5-5.2 11.8-11.7 11.8z" />
			<path id="&lt;Path&gt;" fill-rule="evenodd" class="s0"
				d="m464.8 637.5c-6.5 0-11.8-5.2-11.8-11.8 0-6.5 5.3-11.8 11.8-11.8 6.5 0 11.8 5.3 11.8 11.8 0 6.6-5.3 11.8-11.8 11.8z" />
			<path id="&lt;Path&gt;" fill-rule="evenodd" class="s0"
				d="m336 637.5c-6.5 0-11.8-5.2-11.8-11.8 0-6.5 5.3-11.8 11.8-11.8 6.5 0 11.8 5.3 11.8 11.8 0 6.6-5.3 11.8-11.8 11.8z" />
			<path id="&lt;Path&gt;" fill-rule="evenodd" class="s0"
				d="m636.6 422.8c-6.6 0-11.8-5.2-11.8-11.8 0-6.5 5.2-11.8 11.8-11.8 6.5 0 11.8 5.3 11.8 11.8 0 6.6-5.3 11.8-11.8 11.8z" />
			<path id="&lt;Path&gt;" fill-rule="evenodd" class="s0"
				d="m164.2 422.8c-6.5 0-11.8-5.2-11.8-11.8 0-6.5 5.3-11.8 11.8-11.8 6.5 0 11.8 5.3 11.8 11.8 0 6.6-5.3 11.8-11.8 11.8z" />
			<path id="&lt;Path&gt;" fill-rule="evenodd" class="s0"
				d="m593.6 551.6c-6.5 0-11.7-5.2-11.7-11.7 0-6.6 5.2-11.8 11.7-11.8 6.5 0 11.8 5.2 11.8 11.8 0 6.5-5.3 11.7-11.8 11.7z" />
			<path id="&lt;Path&gt;" fill-rule="evenodd" class="s0"
				d="m250.1 594.6c-6.5 0-11.8-5.3-11.8-11.8 0-6.5 5.3-11.8 11.8-11.8 6.5 0 11.7 5.3 11.7 11.8 0 6.5-5.2 11.8-11.7 11.8z" />
			<path id="&lt;Path&gt;" fill-rule="evenodd" class="s0"
				d="m550.7 594.6c-6.5 0-11.8-5.3-11.8-11.8 0-6.5 5.3-11.8 11.8-11.8 6.5 0 11.7 5.3 11.7 11.8 0 6.5-5.2 11.8-11.7 11.8z" />
			<path id="&lt;Path&gt;" fill-rule="evenodd" class="s0"
				d="m636.6 379.9c-6.6 0-11.8-5.3-11.8-11.8 0-6.5 5.2-11.8 11.8-11.8 6.5 0 11.7 5.3 11.7 11.8 0 6.5-5.2 11.8-11.7 11.8z" />
			<path id="&lt;Path&gt;" fill-rule="evenodd" class="s0"
				d="m164.2 379.9c-6.5 0-11.7-5.3-11.7-11.8 0-6.5 5.2-11.8 11.7-11.8 6.5 0 11.8 5.3 11.8 11.8 0 6.5-5.3 11.8-11.8 11.8z" />
			<path id="&lt;Path&gt;" fill-rule="evenodd" class="s0"
				d="m207.1 551.6c-6.4 0-11.7-5.3-11.7-11.7 0-6.5 5.3-11.8 11.7-11.8 6.5 0 11.8 5.3 11.8 11.8 0 6.4-5.3 11.7-11.8 11.7z" />
			<path id="&lt;Path&gt;" fill-rule="evenodd" class="s0"
				d="m314.5 186.6c-6.5 0-11.7-5.2-11.7-11.7 0-6.5 5.2-11.8 11.7-11.8 6.5 0 11.7 5.3 11.7 11.8 0 6.5-5.2 11.7-11.7 11.7z" />
			<path id="&lt;Path&gt;" fill-rule="evenodd" class="s0"
				d="m486.2 186.6c-6.4 0-11.7-5.2-11.7-11.7 0-6.5 5.3-11.8 11.7-11.8 6.5 0 11.7 5.3 11.7 11.8 0 6.5-5.2 11.7-11.7 11.7z" />
			<path id="&lt;Path&gt;" fill-rule="evenodd" class="s0"
				d="m529.2 616c-6.5 0-11.7-5.3-11.7-11.7 0-6.5 5.2-11.7 11.7-11.7 6.4 0 11.6 5.2 11.6 11.7 0 6.4-5.2 11.7-11.6 11.7z" />
			<path id="&lt;Path&gt;" fill-rule="evenodd" class="s0"
				d="m636.5 465.7c-6.4 0-11.6-5.3-11.6-11.7 0-6.5 5.2-11.7 11.6-11.7 6.4 0 11.7 5.2 11.7 11.7 0 6.4-5.3 11.7-11.7 11.7z" />
			<path id="&lt;Path&gt;" fill-rule="evenodd" class="s0"
				d="m164.2 465.7c-6.5 0-11.7-5.3-11.7-11.7 0-6.5 5.2-11.7 11.7-11.7 6.4 0 11.6 5.2 11.6 11.7 0 6.4-5.2 11.7-11.6 11.7z" />
			<path id="&lt;Path&gt;" fill-rule="evenodd" class="s0"
				d="m271.5 616c-6.4 0-11.6-5.3-11.6-11.7 0-6.5 5.2-11.7 11.6-11.7 6.5 0 11.7 5.2 11.7 11.7 0 6.4-5.2 11.7-11.7 11.7z" />
			<path id="&lt;Path&gt;" fill-rule="evenodd" class="s0"
				d="m615 530c-6.4 0-11.6-5.2-11.6-11.6 0-6.4 5.2-11.6 11.6-11.6 6.4 0 11.5 5.2 11.5 11.6 0 6.4-5.1 11.6-11.5 11.6z" />
			<path id="&lt;Path&gt;" fill-rule="evenodd" class="s0"
				d="m185.6 530c-6.4 0-11.6-5.2-11.6-11.6 0-6.4 5.2-11.6 11.6-11.6 6.4 0 11.5 5.2 11.5 11.6 0 6.4-5.1 11.6-11.5 11.6z" />
			<path id="&lt;Path&gt;" fill-rule="evenodd" class="s0"
				d="m164.1 336.7c-6.4 0-11.5-5.2-11.5-11.5 0-6.4 5.1-11.6 11.5-11.6 6.4 0 11.5 5.2 11.5 11.6 0 6.3-5.1 11.5-11.5 11.5z" />
			<path id="&lt;Path&gt;" fill-rule="evenodd" class="s0"
				d="m636.4 336.7c-6.3 0-11.4-5.2-11.4-11.5 0-6.4 5.1-11.6 11.4-11.6 6.4 0 11.5 5.2 11.5 11.6 0 6.3-5.1 11.5-11.5 11.5z" />
			<path id="&lt;Path&gt;" fill-rule="evenodd" class="s0"
				d="m378.8 164.9c-6.4 0-11.5-5.1-11.5-11.5 0-6.4 5.1-11.5 11.5-11.5 6.4 0 11.5 5.1 11.5 11.5 0 6.4-5.1 11.5-11.5 11.5z" />
			<path id="&lt;Path&gt;" fill-rule="evenodd" class="s0"
				d="m421.7 164.9c-6.3 0-11.4-5.1-11.4-11.5 0-6.4 5.1-11.5 11.4-11.5 6.4 0 11.5 5.1 11.5 11.5 0 6.4-5.1 11.5-11.5 11.5z" />
			<path id="&lt;Path&gt;" fill-rule="evenodd" class="s0"
				d="m400.3 658.7c-6.4 0-11.5-5.2-11.5-11.5 0-6.3 5.1-11.4 11.5-11.4 6.3 0 11.4 5.1 11.4 11.4 0 6.3-5.1 11.5-11.4 11.5z" />
			<path id="&lt;Path&gt;" fill-rule="evenodd" class="s0"
				d="m228.5 229.2c-6.3 0-11.4-5.1-11.4-11.4 0-6.3 5.1-11.4 11.4-11.4 6.3 0 11.4 5.1 11.4 11.4 0 6.3-5.1 11.4-11.4 11.4z" />
			<path id="&lt;Path&gt;" fill-rule="evenodd" class="s0"
				d="m572 229.2c-6.3 0-11.4-5.1-11.4-11.4 0-6.3 5.1-11.4 11.4-11.4 6.4 0 11.5 5.1 11.5 11.4 0 6.3-5.1 11.4-11.5 11.4z" />
			<path id="&lt;Path&gt;" fill-rule="evenodd" class="s0"
				d="m593.5 250.6c-6.3 0-11.4-5-11.4-11.3 0-6.3 5.1-11.4 11.4-11.4 6.3 0 11.4 5.1 11.4 11.4 0 6.3-5.1 11.3-11.4 11.3z" />
			<path id="&lt;Path&gt;" fill-rule="evenodd" class="s0"
				d="m292.9 637.1c-6.3 0-11.4-5.1-11.4-11.4 0-6.2 5.1-11.3 11.4-11.3 6.3 0 11.4 5.1 11.4 11.3 0 6.3-5.1 11.4-11.4 11.4z" />
			<path id="&lt;Path&gt;" fill-rule="evenodd" class="s0"
				d="m507.6 637.1c-6.3 0-11.4-5.1-11.4-11.4 0-6.2 5.1-11.3 11.4-11.3 6.3 0 11.4 5.1 11.4 11.3 0 6.3-5.1 11.4-11.4 11.4z" />
			<path id="&lt;Path&gt;" fill-rule="evenodd" class="s0"
				d="m207 250.6c-6.3 0-11.4-5-11.4-11.3 0-6.3 5.1-11.4 11.4-11.4 6.3 0 11.4 5.1 11.4 11.4 0 6.3-5.1 11.3-11.4 11.3z" />
			<path id="&lt;Path&gt;" fill-rule="evenodd" class="s0"
				d="m357.3 658.5c-6.2 0-11.3-5.1-11.3-11.3 0-6.2 5.1-11.3 11.3-11.3 6.3 0 11.4 5.1 11.4 11.3 0 6.2-5.1 11.3-11.4 11.3z" />
			<path id="&lt;Path&gt;" fill-rule="evenodd" class="s0"
				d="m443.2 658.5c-6.3 0-11.3-5.1-11.3-11.3 0-6.2 5-11.3 11.3-11.3 6.3 0 11.4 5.1 11.4 11.3 0 6.2-5.1 11.3-11.4 11.3z" />
			<path id="&lt;Path&gt;" fill-rule="evenodd" class="s0"
				d="m550.6 207.6c-6.3 0-11.4-5-11.4-11.3 0-6.2 5.1-11.2 11.4-11.2 6.3 0 11.3 5 11.3 11.2 0 6.3-5 11.3-11.3 11.3z" />
			<path id="&lt;Path&gt;" fill-rule="evenodd" class="s0"
				d="m250 207.6c-6.3 0-11.4-5-11.4-11.3 0-6.2 5.1-11.2 11.4-11.2 6.3 0 11.4 5 11.4 11.2 0 6.3-5.1 11.3-11.4 11.3z" />
			<path id="&lt;Path&gt;" fill-rule="evenodd" class="s0"
				d="m335.9 164.6c-6.2 0-11.3-5-11.3-11.2 0-6.2 5.1-11.2 11.3-11.2 6.3 0 11.3 5 11.3 11.2 0 6.2-5 11.2-11.3 11.2z" />
			<path id="&lt;Path&gt;" fill-rule="evenodd" class="s0"
				d="m464.7 164.6c-6.2 0-11.3-5-11.3-11.2 0-6.2 5.1-11.2 11.3-11.2 6.3 0 11.3 5 11.3 11.2 0 6.2-5 11.2-11.3 11.2z" />
			<path id="&lt;Path&gt;" fill-rule="evenodd" class="s0"
				d="m164.2 508.1c-6.2 0-11.3-5-11.3-11.2 0-6.2 5.1-11.2 11.3-11.2 6.2 0 11.2 5 11.2 11.2 0 6.2-5 11.2-11.2 11.2z" />
			<path id="&lt;Path&gt;" fill-rule="evenodd" class="s0"
				d="m636.5 508.1c-6.2 0-11.2-5-11.2-11.2 0-6.2 5-11.2 11.2-11.2 6.2 0 11.3 5 11.3 11.2 0 6.2-5.1 11.2-11.3 11.2z" />
			<path id="&lt;Path&gt;" fill-rule="evenodd" class="s0"
				d="m185.6 271.9c-6.2 0-11.2-5-11.2-11.2 0-6.1 5-11.1 11.2-11.1 6.3 0 11.3 5 11.3 11.1 0 6.2-5 11.2-11.3 11.2z" />
			<path id="&lt;Path&gt;" fill-rule="evenodd" class="s0"
				d="m615 271.9c-6.2 0-11.2-5-11.2-11.2 0-6.1 5-11.1 11.2-11.1 6.3 0 11.3 5 11.3 11.1 0 6.2-5 11.2-11.3 11.2z" />
			<path id="&lt;Path&gt;" fill-rule="evenodd" class="s0"
				d="m142.7 400.7c-6.1 0-11.1-5-11.1-11.1 0-6.2 5-11.2 11.1-11.2 6.2 0 11.2 5 11.2 11.2 0 6.1-5 11.1-11.2 11.1z" />
			<path id="&lt;Path&gt;" fill-rule="evenodd" class="s0"
				d="m658 400.7c-6.2 0-11.2-5-11.2-11.1 0-6.2 5-11.2 11.2-11.2 6.2 0 11.2 5 11.2 11.2 0 6.1-5 11.1-11.2 11.1z" />
			<path id="&lt;Path&gt;" fill-rule="evenodd" class="s0"
				d="m271.6 186c-6.2 0-11.2-5-11.2-11.1 0-6.2 5-11.1 11.2-11.1 6.1 0 11.1 4.9 11.1 11.1 0 6.1-5 11.1-11.1 11.1z" />
			<path id="&lt;Path&gt;" fill-rule="evenodd" class="s0"
				d="m529.2 186c-6.2 0-11.1-5-11.1-11.1 0-6.2 4.9-11.1 11.1-11.1 6.2 0 11.1 4.9 11.1 11.1 0 6.1-4.9 11.1-11.1 11.1z" />
			<path id="&lt;Path&gt;" fill-rule="evenodd" class="s0"
				d="m658 443.6c-6.1 0-11.1-5-11.1-11.1 0-6.1 5-11.1 11.1-11.1 6.2 0 11.1 5 11.1 11.1 0 6.1-4.9 11.1-11.1 11.1z" />
			<path id="&lt;Path&gt;" fill-rule="evenodd" class="s0"
				d="m142.8 443.6c-6.2 0-11.1-5-11.1-11.1 0-6.1 4.9-11.1 11.1-11.1 6.1 0 11.1 5 11.1 11.1 0 6.1-5 11.1-11.1 11.1z" />
			<path id="&lt;Path&gt;" fill-rule="evenodd" class="s0"
				d="m314.5 658.3c-6.1 0-11-5-11-11.1 0-6.1 4.9-11.1 11-11.1 6.1 0 11.1 5 11.1 11.1 0 6.1-5 11.1-11.1 11.1z" />
			<path id="&lt;Path&gt;" fill-rule="evenodd" class="s0"
				d="m486.3 658.3c-6.1 0-11.1-5-11.1-11.1 0-6.1 5-11.1 11.1-11.1 6.1 0 11 5 11 11.1 0 6.1-4.9 11.1-11 11.1z" />
			<path id="&lt;Path&gt;" fill-rule="evenodd" class="s0"
				d="m142.7 357.7c-6.1 0-11-5-11-11.1 0-6.1 4.9-11 11-11 6.2 0 11.1 4.9 11.1 11 0 6.1-4.9 11.1-11.1 11.1z" />
			<path id="&lt;Path&gt;" fill-rule="evenodd" class="s0"
				d="m658 357.7c-6.1 0-11-5-11-11.1 0-6.1 4.9-11 11-11 6.1 0 11.1 4.9 11.1 11 0 6.1-5 11.1-11.1 11.1z" />
			<path id="&lt;Path&gt;" fill-rule="evenodd" class="s0"
				d="m636.5 293.2c-6 0-11-4.9-11-11 0-6.1 5-11 11-11 6.1 0 11 4.9 11 11 0 6.1-4.9 11-11 11z" />
			<path id="&lt;Path&gt;" fill-rule="evenodd" class="s0"
				d="m164.2 293.2c-6.1 0-11-4.9-11-11 0-6.1 4.9-11 11-11 6.1 0 11 4.9 11 11 0 6.1-4.9 11-11 11z" />
			<path id="&lt;Path&gt;" fill-rule="evenodd" class="s0"
				d="m228.5 615.2c-6 0-10.8-4.9-10.8-10.9 0-6.1 4.8-11 10.8-11 6.1 0 10.9 4.9 10.9 11 0 6-4.8 10.9-10.9 10.9z" />
			<path id="&lt;Path&gt;" fill-rule="evenodd" class="s0"
				d="m572.1 615.2c-6.1 0-10.9-4.9-10.9-10.9 0-6.1 4.8-11 10.9-11 6 0 10.8 4.9 10.8 11 0 6-4.8 10.9-10.8 10.9z" />
			<path id="&lt;Path&gt;" fill-rule="evenodd" class="s0"
				d="m593.5 593.7c-6 0-10.8-4.9-10.8-10.9 0-6.1 4.8-10.9 10.8-10.9 6 0 10.9 4.8 10.9 10.9 0 6-4.9 10.9-10.9 10.9z" />
			<path id="&lt;Path&gt;" fill-rule="evenodd" class="s0"
				d="m207.1 593.7c-6 0-10.9-4.9-10.9-10.9 0-6.1 4.9-10.9 10.9-10.9 6 0 10.8 4.8 10.8 10.9 0 6-4.8 10.9-10.8 10.9z" />
			<path id="&lt;Path&gt;" fill-rule="evenodd" class="s0"
				d="m400.3 142.9c-6 0-10.9-4.9-10.9-11 0-6 4.9-10.9 10.9-10.9 6 0 10.9 4.9 10.9 10.9 0 6.1-4.9 11-10.9 11z" />
			<path id="&lt;Path&gt;" fill-rule="evenodd" class="s0"
				d="m292.9 164.3c-5.9 0-10.8-4.9-10.8-10.9 0-6 4.9-10.9 10.8-10.9 6 0 10.8 4.9 10.8 10.9 0 6-4.8 10.9-10.8 10.9z" />
			<path id="&lt;Path&gt;" fill-rule="evenodd" class="s0"
				d="m507.6 164.3c-6 0-10.8-4.9-10.8-10.9 0-6 4.8-10.9 10.8-10.9 6 0 10.8 4.9 10.8 10.9 0 6-4.8 10.9-10.8 10.9z" />
			<path id="&lt;Path&gt;" fill-rule="evenodd" class="s0"
				d="m142.6 486.3c-5.9 0-10.8-4.8-10.8-10.8 0-6.1 4.9-10.9 10.8-10.9 6 0 10.9 4.8 10.9 10.9 0 6-4.9 10.8-10.9 10.8z" />
			<path id="&lt;Path&gt;" fill-rule="evenodd" class="s0"
				d="m657.9 486.3c-6 0-10.8-4.8-10.8-10.8 0-6.1 4.8-10.9 10.8-10.9 6 0 10.8 4.8 10.8 10.9 0 6-4.8 10.8-10.8 10.8z" />
			<path id="&lt;Path&gt;" fill-rule="evenodd" class="s0"
				d="m185.6 572.2c-6 0-10.8-4.9-10.8-10.9 0-6 4.8-10.8 10.8-10.8 6 0 10.8 4.8 10.8 10.8 0 6-4.8 10.9-10.8 10.9z" />
			<path id="&lt;Path&gt;" fill-rule="evenodd" class="s0"
				d="m615 572.2c-6 0-10.8-4.9-10.8-10.9 0-6 4.8-10.8 10.8-10.8 6 0 10.8 4.8 10.8 10.8 0 6-4.8 10.9-10.8 10.9z" />
			<path id="&lt;Path&gt;" fill-rule="evenodd" class="s0"
				d="m357.3 142.7c-5.9 0-10.7-4.8-10.7-10.8 0-5.9 4.8-10.8 10.7-10.8 6 0 10.8 4.9 10.8 10.8 0 6-4.8 10.8-10.8 10.8z" />
			<path id="&lt;Path&gt;" fill-rule="evenodd" class="s0"
				d="m421.7 679.5c-5.9 0-10.7-4.8-10.7-10.8 0-6 4.8-10.8 10.7-10.8 6 0 10.8 4.8 10.8 10.8 0 6-4.8 10.8-10.8 10.8z" />
			<path id="&lt;Path&gt;" fill-rule="evenodd" class="s0"
				d="m378.8 679.5c-6 0-10.8-4.8-10.8-10.8 0-6 4.8-10.8 10.8-10.8 6 0 10.8 4.8 10.8 10.8 0 6-4.8 10.8-10.8 10.8z" />
			<path id="&lt;Path&gt;" fill-rule="evenodd" class="s0"
				d="m443.2 142.7c-5.9 0-10.8-4.8-10.8-10.8 0-5.9 4.9-10.8 10.8-10.8 6 0 10.8 4.9 10.8 10.8 0 6-4.8 10.8-10.8 10.8z" />
			<path id="&lt;Path&gt;" fill-rule="evenodd" class="s0"
				d="m250 636.4c-6 0-10.8-4.7-10.8-10.7 0-5.9 4.8-10.6 10.8-10.6 5.9 0 10.7 4.7 10.7 10.6 0 6-4.8 10.7-10.7 10.7z" />
			<path id="&lt;Path&gt;" fill-rule="evenodd" class="s0"
				d="m550.6 636.4c-6 0-10.8-4.7-10.8-10.7 0-5.9 4.8-10.6 10.8-10.6 5.9 0 10.7 4.7 10.7 10.6 0 6-4.8 10.7-10.7 10.7z" />
			<path id="&lt;Path&gt;" fill-rule="evenodd" class="s0"
				d="m142.7 314.2c-5.9 0-10.7-4.7-10.7-10.5 0-5.8 4.8-10.5 10.7-10.5 5.8 0 10.6 4.7 10.6 10.5 0 5.8-4.8 10.5-10.6 10.5z" />
			<path id="&lt;Path&gt;" fill-rule="evenodd" class="s0"
				d="m164.1 550.4c-5.9 0-10.6-4.7-10.6-10.5 0-5.9 4.7-10.6 10.6-10.6 5.9 0 10.7 4.7 10.7 10.6 0 5.8-4.8 10.5-10.7 10.5z" />
			<path id="&lt;Path&gt;" fill-rule="evenodd" class="s0"
				d="m636.5 550.4c-5.9 0-10.7-4.7-10.7-10.5 0-5.9 4.8-10.6 10.7-10.6 5.8 0 10.6 4.7 10.6 10.6 0 5.8-4.8 10.5-10.6 10.5z" />
			<path id="&lt;Path&gt;" fill-rule="evenodd" class="s0"
				d="m657.9 314.2c-5.8 0-10.6-4.7-10.6-10.5 0-5.8 4.8-10.6 10.6-10.6 5.9 0 10.7 4.8 10.7 10.6 0 5.8-4.8 10.5-10.7 10.5z" />
			<path id="&lt;Path&gt;" fill-rule="evenodd" class="s0"
				d="m464.8 679.1c-5.8 0-10.5-4.6-10.5-10.4 0-5.8 4.7-10.5 10.5-10.5 5.8 0 10.5 4.7 10.5 10.5 0 5.8-4.7 10.4-10.5 10.4z" />
			<path id="&lt;Path&gt;" fill-rule="evenodd" class="s0"
				d="m336 679.1c-5.9 0-10.5-4.6-10.5-10.4 0-5.8 4.6-10.5 10.5-10.5 5.8 0 10.4 4.7 10.4 10.5 0 5.8-4.6 10.4-10.4 10.4z" />
			<path id="&lt;Path&gt;" fill-rule="evenodd" class="s0"
				d="m679.5 421.4c-5.8 0-10.4-4.6-10.4-10.4 0-5.7 4.6-10.4 10.4-10.4 5.8 0 10.4 4.7 10.4 10.4 0 5.8-4.6 10.4-10.4 10.4z" />
			<path id="&lt;Path&gt;" fill-rule="evenodd" class="s0"
				d="m121.3 421.4c-5.8 0-10.5-4.6-10.5-10.4 0-5.7 4.7-10.4 10.5-10.4 5.7 0 10.4 4.7 10.4 10.4 0 5.8-4.7 10.4-10.4 10.4z" />
			<path id="&lt;Path&gt;" fill-rule="evenodd" class="s0"
				d="m593.6 206.7c-5.8 0-10.4-4.6-10.4-10.4 0-5.7 4.6-10.4 10.4-10.4 5.8 0 10.4 4.7 10.4 10.4 0 5.8-4.6 10.4-10.4 10.4z" />
			<path id="&lt;Path&gt;" fill-rule="evenodd" class="s0"
				d="m529.2 657.6c-5.8 0-10.4-4.6-10.4-10.4 0-5.8 4.6-10.4 10.4-10.4 5.8 0 10.4 4.6 10.4 10.4 0 5.8-4.6 10.4-10.4 10.4z" />
			<path id="&lt;Path&gt;" fill-rule="evenodd" class="s0"
				d="m271.6 657.6c-5.8 0-10.5-4.6-10.5-10.4 0-5.8 4.7-10.4 10.5-10.4 5.7 0 10.4 4.6 10.4 10.4 0 5.8-4.7 10.4-10.4 10.4z" />
			<path id="&lt;Path&gt;" fill-rule="evenodd" class="s0"
				d="m207.2 206.7c-5.8 0-10.5-4.6-10.5-10.4 0-5.7 4.7-10.4 10.5-10.4 5.7 0 10.4 4.7 10.4 10.4 0 5.8-4.7 10.4-10.4 10.4z" />
			<path id="&lt;Path&gt;" fill-rule="evenodd" class="s0"
				d="m185.7 228.2c-5.8 0-10.4-4.7-10.4-10.4 0-5.7 4.6-10.4 10.4-10.4 5.7 0 10.4 4.7 10.4 10.4 0 5.7-4.7 10.4-10.4 10.4z" />
			<path id="&lt;Path&gt;" fill-rule="evenodd" class="s0"
				d="m615.1 228.2c-5.8 0-10.4-4.7-10.4-10.4 0-5.7 4.6-10.4 10.4-10.4 5.7 0 10.4 4.7 10.4 10.4 0 5.7-4.7 10.4-10.4 10.4z" />
			<path id="&lt;Path&gt;" fill-rule="evenodd" class="s0"
				d="m121.3 378.5c-5.8 0-10.4-4.7-10.4-10.4 0-5.7 4.6-10.4 10.4-10.4 5.7 0 10.4 4.7 10.4 10.4 0 5.7-4.7 10.4-10.4 10.4z" />
			<path id="&lt;Path&gt;" fill-rule="evenodd" class="s0"
				d="m486.3 142.3c-5.8 0-10.4-4.6-10.4-10.4 0-5.7 4.6-10.4 10.4-10.4 5.7 0 10.4 4.7 10.4 10.4 0 5.8-4.7 10.4-10.4 10.4z" />
			<path id="&lt;Path&gt;" fill-rule="evenodd" class="s0"
				d="m314.5 142.3c-5.7 0-10.4-4.6-10.4-10.4 0-5.7 4.7-10.4 10.4-10.4 5.8 0 10.4 4.7 10.4 10.4 0 5.8-4.6 10.4-10.4 10.4z" />
			<path id="&lt;Path&gt;" fill-rule="evenodd" class="s0"
				d="m679.5 378.5c-5.7 0-10.4-4.7-10.4-10.4 0-5.7 4.7-10.4 10.4-10.4 5.7 0 10.4 4.7 10.4 10.4 0 5.7-4.7 10.4-10.4 10.4z" />
			<path id="&lt;Path&gt;" fill-rule="evenodd" class="s0"
				d="m228.6 185.2c-5.7 0-10.3-4.6-10.3-10.3 0-5.8 4.6-10.4 10.3-10.4 5.8 0 10.4 4.6 10.4 10.4 0 5.7-4.6 10.3-10.4 10.3z" />
			<path id="&lt;Path&gt;" fill-rule="evenodd" class="s0"
				d="m572.1 185.2c-5.7 0-10.3-4.6-10.3-10.3 0-5.8 4.6-10.4 10.3-10.4 5.8 0 10.4 4.6 10.4 10.4 0 5.7-4.6 10.3-10.4 10.3z" />
			<path id="&lt;Path&gt;" fill-rule="evenodd" class="s0"
				d="m658 528.7c-5.7 0-10.3-4.6-10.3-10.3 0-5.7 4.6-10.3 10.3-10.3 5.7 0 10.3 4.6 10.3 10.3 0 5.7-4.6 10.3-10.3 10.3z" />
			<path id="&lt;Path&gt;" fill-rule="evenodd" class="s0"
				d="m142.7 528.7c-5.7 0-10.3-4.6-10.3-10.3 0-5.7 4.6-10.3 10.3-10.3 5.7 0 10.3 4.6 10.3 10.3 0 5.7-4.6 10.3-10.3 10.3z" />
			<path id="&lt;Path&gt;" fill-rule="evenodd" class="s0"
				d="m121.3 464.3c-5.7 0-10.3-4.6-10.3-10.3 0-5.7 4.6-10.4 10.3-10.4 5.7 0 10.3 4.7 10.3 10.4 0 5.7-4.6 10.3-10.3 10.3z" />
			<path id="&lt;Path&gt;" fill-rule="evenodd" class="s0"
				d="m679.5 464.3c-5.7 0-10.3-4.6-10.3-10.3 0-5.7 4.6-10.4 10.3-10.4 5.7 0 10.3 4.7 10.3 10.4 0 5.7-4.6 10.3-10.3 10.3z" />
			<path id="&lt;Path&gt;" fill-rule="evenodd" class="s0"
				d="m164.2 249.6c-5.7 0-10.3-4.6-10.3-10.3 0-5.7 4.6-10.3 10.3-10.3 5.6 0 10.2 4.6 10.2 10.3 0 5.7-4.6 10.3-10.2 10.3z" />
			<path id="&lt;Path&gt;" fill-rule="evenodd" class="s0"
				d="m636.5 249.6c-5.6 0-10.2-4.6-10.2-10.3 0-5.7 4.6-10.3 10.2-10.3 5.7 0 10.3 4.6 10.3 10.3 0 5.7-4.6 10.3-10.3 10.3z" />
			<path id="&lt;Path&gt;" fill-rule="evenodd" class="s0"
				d="m550.6 163.6c-5.6 0-10.2-4.5-10.2-10.2 0-5.7 4.6-10.2 10.2-10.2 5.6 0 10.2 4.5 10.2 10.2 0 5.7-4.6 10.2-10.2 10.2z" />
			<path id="&lt;Path&gt;" fill-rule="evenodd" class="s0"
				d="m421.7 120.6c-5.5 0-10.1-4.5-10.1-10.1 0-5.7 4.6-10.2 10.1-10.2 5.6 0 10.1 4.5 10.1 10.2 0 5.6-4.5 10.1-10.1 10.1z" />
			<path id="&lt;Path&gt;" fill-rule="evenodd" class="s0"
				d="m378.8 120.6c-5.6 0-10.1-4.5-10.1-10.1 0-5.7 4.5-10.2 10.1-10.2 5.6 0 10.1 4.5 10.1 10.2 0 5.6-4.5 10.1-10.1 10.1z" />
			<path id="&lt;Path&gt;" fill-rule="evenodd" class="s0"
				d="m250 163.6c-5.6 0-10.1-4.6-10.1-10.2 0-5.6 4.5-10.2 10.1-10.2 5.6 0 10.1 4.6 10.1 10.2 0 5.6-4.5 10.2-10.1 10.2z" />
			<path id="&lt;Path&gt;" fill-rule="evenodd" class="s0"
				d="m679.4 335.3c-5.6 0-10.1-4.5-10.1-10.1 0-5.7 4.5-10.2 10.1-10.2 5.6 0 10.1 4.5 10.1 10.2 0 5.6-4.5 10.1-10.1 10.1z" />
			<path id="&lt;Path&gt;" fill-rule="evenodd" class="s0"
				d="m121.2 335.3c-5.6 0-10.1-4.5-10.1-10.1 0-5.7 4.5-10.2 10.1-10.2 5.6 0 10.1 4.5 10.1 10.2 0 5.6-4.5 10.1-10.1 10.1z" />
			<path id="&lt;Path&gt;" fill-rule="evenodd" class="s0"
				d="m507.6 678.8c-5.5 0-10-4.5-10-10.1 0-5.6 4.5-10.1 10-10.1 5.6 0 10.1 4.5 10.1 10.1 0 5.6-4.5 10.1-10.1 10.1z" />
			<path id="&lt;Path&gt;" fill-rule="evenodd" class="s0"
				d="m292.9 678.8c-5.5 0-10-4.5-10-10.1 0-5.6 4.5-10.1 10-10.1 5.6 0 10.1 4.5 10.1 10.1 0 5.6-4.5 10.1-10.1 10.1z" />
			<path id="&lt;Path&gt;" fill-rule="evenodd" class="s0"
				d="m400.3 700.1c-5.6 0-10-4.4-10-9.9 0-5.6 4.4-10 10-10 5.5 0 10 4.4 10 10 0 5.5-4.5 9.9-10 9.9z" />
			<path id="&lt;Path&gt;" fill-rule="evenodd" class="s0"
				d="m657.9 270.7c-5.5 0-10-4.4-10-9.9 0-5.6 4.5-10 10-10 5.5 0 10 4.4 10 10 0 5.5-4.5 9.9-10 9.9z" />
			<path id="&lt;Path&gt;" fill-rule="evenodd" class="s0"
				d="m142.6 270.6c-5.5 0-9.9-4.4-9.9-9.8 0-5.5 4.4-9.9 9.9-9.9 5.5 0 10 4.4 10 9.9 0 5.4-4.5 9.8-10 9.8z" />
			<path id="&lt;Path&gt;" fill-rule="evenodd" class="s0"
				d="m443.2 700c-5.4 0-9.9-4.4-9.9-9.9 0-5.4 4.5-9.8 9.9-9.8 5.5 0 9.9 4.4 9.9 9.8 0 5.5-4.4 9.9-9.9 9.9z" />
			<path id="&lt;Path&gt;" fill-rule="evenodd" class="s0"
				d="m357.4 700c-5.5 0-9.9-4.4-9.9-9.8 0-5.5 4.4-9.9 9.9-9.9 5.4 0 9.9 4.4 9.9 9.9 0 5.4-4.5 9.8-9.9 9.8z" />
			<path id="&lt;Path&gt;" fill-rule="evenodd" class="s0"
				d="m679.4 506.7c-5.4 0-9.8-4.4-9.8-9.8 0-5.4 4.4-9.7 9.8-9.7 5.5 0 9.9 4.3 9.9 9.7 0 5.4-4.4 9.8-9.9 9.8z" />
			<path id="&lt;Path&gt;" fill-rule="evenodd" class="s0"
				d="m335.9 120.2c-5.4 0-9.8-4.3-9.8-9.7 0-5.4 4.4-9.8 9.8-9.8 5.5 0 9.9 4.4 9.9 9.8 0 5.4-4.4 9.7-9.9 9.7z" />
			<path id="&lt;Path&gt;" fill-rule="evenodd" class="s0"
				d="m271.5 141.7c-5.4 0-9.8-4.4-9.8-9.8 0-5.4 4.4-9.7 9.8-9.7 5.5 0 9.8 4.3 9.8 9.7 0 5.4-4.3 9.8-9.8 9.8z" />
			<path id="&lt;Path&gt;" fill-rule="evenodd" class="s0"
				d="m529.2 141.7c-5.5 0-9.9-4.4-9.9-9.8 0-5.4 4.4-9.7 9.9-9.7 5.4 0 9.8 4.3 9.8 9.7 0 5.4-4.4 9.8-9.8 9.8z" />
			<path id="&lt;Path&gt;" fill-rule="evenodd" class="s0"
				d="m121.2 506.7c-5.4 0-9.8-4.4-9.8-9.8 0-5.4 4.4-9.7 9.8-9.7 5.5 0 9.9 4.3 9.9 9.7 0 5.4-4.4 9.8-9.9 9.8z" />
			<path id="&lt;Path&gt;" fill-rule="evenodd" class="s0"
				d="m464.7 120.2c-5.4 0-9.8-4.3-9.8-9.7 0-5.4 4.4-9.8 9.8-9.8 5.5 0 9.9 4.4 9.9 9.8 0 5.4-4.4 9.7-9.9 9.7z" />
			<path id="&lt;Path&gt;" fill-rule="evenodd" class="s0"
				d="m593.6 635.4c-5.4 0-9.8-4.3-9.8-9.7 0-5.3 4.4-9.7 9.8-9.7 5.4 0 9.8 4.4 9.8 9.7 0 5.4-4.4 9.7-9.8 9.7z" />
			<path id="&lt;Path&gt;" fill-rule="evenodd" class="s0"
				d="m207.1 635.5c-5.4 0-9.7-4.4-9.7-9.8 0-5.3 4.3-9.7 9.7-9.7 5.4 0 9.8 4.4 9.8 9.7 0 5.4-4.4 9.8-9.8 9.8z" />
			<path id="&lt;Path&gt;" fill-rule="evenodd" class="s0"
				d="m615.1 614c-5.4 0-9.8-4.4-9.8-9.7 0-5.4 4.4-9.8 9.8-9.8 5.4 0 9.7 4.4 9.7 9.8 0 5.3-4.3 9.7-9.7 9.7z" />
			<path id="&lt;Path&gt;" fill-rule="evenodd" class="s0"
				d="m185.7 614c-5.4 0-9.8-4.4-9.8-9.7 0-5.4 4.4-9.8 9.8-9.8 5.4 0 9.7 4.4 9.7 9.8 0 5.3-4.3 9.7-9.7 9.7z" />
			<path id="&lt;Path&gt;" fill-rule="evenodd" class="s0"
				d="m636.6 592.5c-5.4 0-9.7-4.4-9.7-9.7 0-5.4 4.3-9.7 9.7-9.7 5.3 0 9.7 4.3 9.7 9.7 0 5.3-4.4 9.7-9.7 9.7z" />
			<path id="&lt;Path&gt;" fill-rule="evenodd" class="s0"
				d="m164.2 592.5c-5.3 0-9.7-4.4-9.7-9.7 0-5.4 4.4-9.7 9.7-9.7 5.4 0 9.7 4.3 9.7 9.7 0 5.3-4.3 9.7-9.7 9.7z" />
			<path id="&lt;Path&gt;" fill-rule="evenodd" class="s0"
				d="m99.8 399.2c-5.3 0-9.6-4.3-9.6-9.6 0-5.4 4.3-9.7 9.6-9.7 5.4 0 9.7 4.3 9.7 9.7 0 5.3-4.3 9.6-9.7 9.6z" />
			<path id="&lt;Path&gt;" fill-rule="evenodd" class="s0"
				d="m701 399.2c-5.4 0-9.7-4.3-9.7-9.6 0-5.4 4.3-9.7 9.7-9.7 5.3 0 9.6 4.3 9.6 9.7 0 5.3-4.3 9.6-9.6 9.6z" />
			<path id="&lt;Path&gt;" fill-rule="evenodd" class="s0"
				d="m572.1 656.8c-5.3 0-9.6-4.3-9.6-9.6 0-5.3 4.3-9.6 9.6-9.6 5.4 0 9.6 4.3 9.6 9.6 0 5.3-4.2 9.6-9.6 9.6z" />
			<path id="&lt;Path&gt;" fill-rule="evenodd" class="s0"
				d="m228.6 656.8c-5.3 0-9.6-4.3-9.6-9.6 0-5.3 4.3-9.6 9.6-9.6 5.3 0 9.6 4.3 9.6 9.6 0 5.3-4.3 9.6-9.6 9.6z" />
			<path id="&lt;Path&gt;" fill-rule="evenodd" class="s0"
				d="m701 442.1c-5.4 0-9.6-4.3-9.6-9.6 0-5.3 4.2-9.6 9.6-9.6 5.3 0 9.6 4.3 9.6 9.6 0 5.3-4.3 9.6-9.6 9.6z" />
			<path id="&lt;Path&gt;" fill-rule="evenodd" class="s0"
				d="m99.8 442.1c-5.3 0-9.6-4.3-9.6-9.6 0-5.3 4.3-9.6 9.6-9.6 5.3 0 9.5 4.3 9.5 9.6 0 5.3-4.2 9.6-9.5 9.6z" />
			<path id="&lt;Path&gt;" fill-rule="evenodd" class="s0"
				d="m679.5 291.8c-5.3 0-9.6-4.3-9.6-9.6 0-5.3 4.3-9.6 9.6-9.6 5.3 0 9.5 4.3 9.5 9.6 0 5.3-4.2 9.6-9.5 9.6z" />
			<path id="&lt;Path&gt;" fill-rule="evenodd" class="s0"
				d="m121.3 291.8c-5.3 0-9.6-4.3-9.6-9.6 0-5.3 4.3-9.6 9.6-9.6 5.2 0 9.5 4.3 9.5 9.6 0 5.3-4.3 9.6-9.5 9.6z" />
			<path id="&lt;Path&gt;" fill-rule="evenodd" class="s0"
				d="m486.2 699.7c-5.2 0-9.5-4.3-9.5-9.6 0-5.3 4.3-9.5 9.5-9.5 5.3 0 9.6 4.2 9.6 9.5 0 5.3-4.3 9.6-9.6 9.6z" />
			<path id="&lt;Path&gt;" fill-rule="evenodd" class="s0"
				d="m314.5 699.7c-5.3 0-9.6-4.3-9.6-9.6 0-5.3 4.3-9.5 9.6-9.5 5.3 0 9.5 4.2 9.5 9.5 0 5.3-4.2 9.6-9.5 9.6z" />
			<path id="&lt;Path&gt;" fill-rule="evenodd" class="s0"
				d="m658 570.9c-5.3 0-9.5-4.3-9.5-9.6 0-5.2 4.2-9.5 9.5-9.5 5.2 0 9.4 4.3 9.4 9.5 0 5.3-4.2 9.6-9.4 9.6z" />
			<path id="&lt;Path&gt;" fill-rule="evenodd" class="s0"
				d="m142.7 570.9c-5.3 0-9.5-4.3-9.5-9.6 0-5.2 4.2-9.5 9.5-9.5 5.2 0 9.4 4.3 9.4 9.5 0 5.3-4.2 9.6-9.4 9.6z" />
			<path id="&lt;Path&gt;" fill-rule="evenodd" class="s0"
				d="m99.7 356.2c-5.2 0-9.4-4.3-9.4-9.6 0-5.2 4.2-9.5 9.4-9.5 5.3 0 9.5 4.3 9.5 9.5 0 5.3-4.2 9.6-9.5 9.6z" />
			<path id="&lt;Path&gt;" fill-rule="evenodd" class="s0"
				d="m700.9 356.2c-5.2 0-9.5-4.3-9.5-9.6 0-5.2 4.3-9.5 9.5-9.5 5.2 0 9.5 4.3 9.5 9.5 0 5.3-4.3 9.6-9.5 9.6z" />
			<path id="&lt;Path&gt;" fill-rule="evenodd" class="s0"
				d="m292.9 119.8c-5.1 0-9.3-4.2-9.3-9.3 0-5.2 4.2-9.4 9.3-9.4 5.2 0 9.4 4.2 9.4 9.4 0 5.1-4.2 9.3-9.4 9.3z" />
			<path id="&lt;Path&gt;" fill-rule="evenodd" class="s0"
				d="m507.6 119.8c-5.2 0-9.3-4.2-9.3-9.3 0-5.2 4.1-9.4 9.3-9.4 5.2 0 9.4 4.2 9.4 9.4 0 5.1-4.2 9.3-9.4 9.3z" />
			<path id="&lt;Path&gt;" fill-rule="evenodd" class="s0"
				d="m550.6 677.9c-5.2 0-9.3-4.1-9.3-9.2 0-5.1 4.1-9.3 9.3-9.3 5.1 0 9.2 4.2 9.2 9.3 0 5.1-4.1 9.2-9.2 9.2z" />
			<path id="&lt;Path&gt;" fill-rule="evenodd" class="s0"
				d="m250 678c-5.2 0-9.3-4.2-9.3-9.3 0-5.1 4.1-9.3 9.3-9.3 5.1 0 9.3 4.2 9.3 9.3 0 5.1-4.2 9.3-9.3 9.3z" />
			<path id="&lt;Path&gt;" fill-rule="evenodd" class="s0"
				d="m99.7 484.6c-5.1 0-9.2-4.1-9.2-9.1 0-5.1 4.1-9.2 9.2-9.2 5.1 0 9.2 4.1 9.2 9.2 0 5-4.1 9.1-9.2 9.1z" />
			<path id="&lt;Path&gt;" fill-rule="evenodd" class="s0"
				d="m185.6 184c-5.1 0-9.3-4.1-9.3-9.1 0-5.1 4.2-9.2 9.3-9.2 5.1 0 9.2 4.1 9.2 9.2 0 5-4.1 9.1-9.2 9.1z" />
			<path id="&lt;Path&gt;" fill-rule="evenodd" class="s0"
				d="m400.3 98.2c-5.1 0-9.3-4.1-9.3-9.2 0-5.1 4.2-9.2 9.3-9.2 5.1 0 9.2 4.1 9.2 9.2 0 5.1-4.1 9.2-9.2 9.2z" />
			<path id="&lt;Path&gt;" fill-rule="evenodd" class="s0"
				d="m615 184c-5.1 0-9.3-4.1-9.3-9.1 0-5.1 4.2-9.2 9.3-9.2 5.1 0 9.2 4.1 9.2 9.2 0 5-4.1 9.1-9.2 9.1z" />
			<path id="&lt;Path&gt;" fill-rule="evenodd" class="s0"
				d="m700.9 484.6c-5.2 0-9.3-4.1-9.3-9.1 0-5.1 4.1-9.2 9.3-9.2 5.1 0 9.2 4.1 9.2 9.2 0 5-4.1 9.1-9.2 9.1z" />
			<path id="&lt;Path&gt;" fill-rule="evenodd" class="s0"
				d="m636.5 205.4c-5.1 0-9.2-4-9.2-9.1 0-5 4.1-9 9.2-9 5 0 9.2 4 9.2 9 0 5.1-4.2 9.1-9.2 9.1z" />
			<path id="&lt;Path&gt;" fill-rule="evenodd" class="s0"
				d="m164.1 205.4c-5.1 0-9.2-4-9.2-9.1 0-5 4.1-9 9.2-9 5.1 0 9.2 4 9.2 9 0 5.1-4.1 9.1-9.2 9.1z" />
			<path id="&lt;Path&gt;" fill-rule="evenodd" class="s0"
				d="m443.3 98c-5.1 0-9.1-4-9.1-9 0-5 4-9 9.1-9 5 0 9.1 4 9.1 9 0 5-4.1 9-9.1 9z" />
			<path id="&lt;Path&gt;" fill-rule="evenodd" class="s0"
				d="m593.6 162.4c-5.1 0-9.1-4-9.1-9 0-5 4-9 9.1-9 5 0 9.1 4 9.1 9 0 5-4.1 9-9.1 9z" />
			<path id="&lt;Path&gt;" fill-rule="evenodd" class="s0"
				d="m207.1 162.4c-5 0-9.1-4-9.1-9 0-5 4.1-9 9.1-9 5 0 9.1 4 9.1 9 0 5-4.1 9-9.1 9z" />
			<path id="&lt;Path&gt;" fill-rule="evenodd" class="s0"
				d="m357.4 98c-5 0-9.1-4-9.1-9 0-5 4.1-9 9.1-9 5 0 9.1 4 9.1 9 0 5-4.1 9-9.1 9z" />
			<path id="&lt;Path&gt;" fill-rule="evenodd" class="s0"
				d="m679.4 548.9c-5 0-9.1-4-9.1-9 0-5 4.1-9.1 9.1-9.1 5.1 0 9.2 4.1 9.2 9.1 0 5-4.1 9-9.2 9z" />
			<path id="&lt;Path&gt;" fill-rule="evenodd" class="s0"
				d="m121.2 548.9c-5 0-9.1-4-9.1-9 0-5 4.1-9.1 9.1-9.1 5.1 0 9.1 4.1 9.1 9.1 0 5-4 9-9.1 9z" />
			<path id="&lt;Path&gt;" fill-rule="evenodd" class="s0"
				d="m378.9 720.7c-5.1 0-9.1-4.1-9.1-9.1 0-5 4-9 9.1-9 5 0 9.1 4 9.1 9 0 5-4.1 9.1-9.1 9.1z" />
			<path id="&lt;Path&gt;" fill-rule="evenodd" class="s0"
				d="m421.8 720.7c-5 0-9.1-4.1-9.1-9.1 0-5 4.1-9 9.1-9 5 0 9.1 4 9.1 9 0 5-4.1 9.1-9.1 9.1z" />
			<path id="&lt;Path&gt;" fill-rule="evenodd" class="s0"
				d="m658 226.8c-5 0-9-4-9-9 0-5 4-9 9-9 5 0 9 4 9 9 0 5-4 9-9 9z" />
			<path id="&lt;Path&gt;" fill-rule="evenodd" class="s0"
				d="m142.7 226.8c-4.9 0-9-4-9-9 0-5 4.1-9 9-9 5 0 9.1 4 9.1 9 0 5-4.1 9-9.1 9z" />
			<path id="&lt;Path&gt;" fill-rule="evenodd" class="s0"
				d="m701 312.6c-5 0-9-4-9-8.9 0-5 4-9 9-9 4.9 0 8.9 4 8.9 9 0 4.9-4 8.9-8.9 8.9z" />
			<path id="&lt;Path&gt;" fill-rule="evenodd" class="s0"
				d="m99.8 312.6c-4.9 0-9-4-9-8.9 0-5 4.1-9 9-9 5 0 9 4 9 9 0 4.9-4 8.9-9 8.9z" />
			<path id="&lt;Path&gt;" fill-rule="evenodd" class="s0"
				d="m228.6 140.8c-4.9 0-8.9-3.9-8.9-8.9 0-4.9 4-8.9 8.9-8.9 5 0 8.9 4 8.9 8.9 0 5-3.9 8.9-8.9 8.9z" />
			<path id="&lt;Path&gt;" fill-rule="evenodd" class="s0"
				d="m572.1 140.8c-4.9 0-8.9-3.9-8.9-8.9 0-4.9 4-8.9 8.9-8.9 5 0 9 4 9 8.9 0 5-4 8.9-9 8.9z" />
			<path id="&lt;Path&gt;" fill-rule="evenodd" class="s0"
				d="m529.2 699c-4.9 0-8.9-3.9-8.9-8.9 0-4.9 4-8.8 8.9-8.8 4.9 0 8.9 3.9 8.9 8.8 0 5-4 8.9-8.9 8.9z" />
			<path id="&lt;Path&gt;" fill-rule="evenodd" class="s0"
				d="m271.6 699c-4.9 0-8.9-3.9-8.9-8.9 0-4.9 4-8.8 8.9-8.8 4.9 0 8.8 3.9 8.8 8.8 0 5-3.9 8.9-8.8 8.9z" />
			<path id="&lt;Path&gt;" fill-rule="evenodd" class="s0"
				d="m464.8 720.5c-4.9 0-8.8-4-8.8-8.9 0-4.9 3.9-8.8 8.8-8.8 4.8 0 8.8 3.9 8.8 8.8 0 4.9-4 8.9-8.8 8.9z" />
			<path id="&lt;Path&gt;" fill-rule="evenodd" class="s0"
				d="m335.9 720.5c-4.8 0-8.8-4-8.8-8.9 0-4.9 4-8.8 8.8-8.8 4.9 0 8.8 3.9 8.8 8.8 0 4.9-3.9 8.9-8.8 8.9z" />
			<path id="&lt;Path&gt;" fill-rule="evenodd" class="s0"
				d="m679.4 248.1c-4.8 0-8.7-4-8.7-8.8 0-4.9 3.9-8.8 8.7-8.8 4.8 0 8.7 3.9 8.7 8.8 0 4.8-3.9 8.8-8.7 8.8z" />
			<path id="&lt;Path&gt;" fill-rule="evenodd" class="s0"
				d="m486.2 97.8c-4.8 0-8.7-4-8.7-8.8 0-4.9 3.9-8.8 8.7-8.8 4.8 0 8.7 3.9 8.7 8.8 0 4.8-3.9 8.8-8.7 8.8z" />
			<path id="&lt;Path&gt;" fill-rule="evenodd" class="s0"
				d="m121.2 248.1c-4.8 0-8.7-4-8.7-8.8 0-4.9 3.9-8.8 8.7-8.8 4.8 0 8.7 3.9 8.7 8.8 0 4.8-3.9 8.8-8.7 8.8z" />
			<path id="&lt;Path&gt;" fill-rule="evenodd" class="s0"
				d="m314.4 97.8c-4.8 0-8.7-4-8.7-8.8 0-4.9 3.9-8.8 8.7-8.8 4.8 0 8.7 3.9 8.7 8.8 0 4.8-3.9 8.8-8.7 8.8z" />
			<path id="&lt;Path&gt;" fill-rule="evenodd" class="s0"
				d="m78.2 419.7c-4.8 0-8.6-3.9-8.6-8.7 0-4.7 3.8-8.6 8.6-8.6 4.8 0 8.7 3.9 8.7 8.6 0 4.8-3.9 8.7-8.7 8.7z" />
			<path id="&lt;Path&gt;" fill-rule="evenodd" class="s0"
				d="m722.3 419.7c-4.8 0-8.6-3.9-8.6-8.7 0-4.7 3.8-8.6 8.6-8.6 4.8 0 8.7 3.9 8.7 8.6 0 4.8-3.9 8.7-8.7 8.7z" />
			<path id="&lt;Path&gt;" fill-rule="evenodd" class="s0"
				d="m700.8 527c-4.7 0-8.6-3.9-8.6-8.6 0-4.7 3.9-8.6 8.6-8.6 4.8 0 8.6 3.9 8.6 8.6 0 4.7-3.8 8.6-8.6 8.6z" />
			<path id="&lt;Path&gt;" fill-rule="evenodd" class="s0"
				d="m722.3 376.7c-4.7 0-8.6-3.8-8.6-8.6 0-4.7 3.9-8.5 8.6-8.5 4.8 0 8.6 3.8 8.6 8.5 0 4.8-3.8 8.6-8.6 8.6z" />
			<path id="&lt;Path&gt;" fill-rule="evenodd" class="s0"
				d="m99.7 527c-4.8 0-8.6-3.9-8.6-8.6 0-4.7 3.8-8.6 8.6-8.6 4.7 0 8.6 3.9 8.6 8.6 0 4.7-3.9 8.6-8.6 8.6z" />
			<path id="&lt;Path&gt;" fill-rule="evenodd" class="s0"
				d="m78.2 376.7c-4.7 0-8.6-3.9-8.6-8.6 0-4.7 3.9-8.5 8.6-8.5 4.8 0 8.6 3.8 8.6 8.5 0 4.7-3.8 8.6-8.6 8.6z" />
			<path id="&lt;Path&gt;" fill-rule="evenodd" class="s0"
				d="m250 118.9c-4.7 0-8.5-3.8-8.5-8.4 0-4.7 3.8-8.5 8.5-8.5 4.7 0 8.5 3.8 8.5 8.5 0 4.6-3.8 8.4-8.5 8.4z" />
			<path id="&lt;Path&gt;" fill-rule="evenodd" class="s0"
				d="m550.6 118.9c-4.8 0-8.6-3.8-8.6-8.4 0-4.7 3.8-8.5 8.6-8.5 4.7 0 8.5 3.8 8.5 8.5 0 4.6-3.8 8.4-8.5 8.4z" />
			<path id="&lt;Path&gt;" fill-rule="evenodd" class="s0"
				d="m722.4 462.3c-4.7 0-8.5-3.7-8.5-8.3 0-4.6 3.8-8.4 8.5-8.4 4.6 0 8.4 3.8 8.4 8.4 0 4.6-3.8 8.3-8.4 8.3z" />
			<path id="&lt;Path&gt;" fill-rule="evenodd" class="s0"
				d="m78.3 462.3c-4.7 0-8.5-3.7-8.5-8.3 0-4.6 3.8-8.4 8.5-8.4 4.6 0 8.4 3.8 8.4 8.4 0 4.6-3.8 8.3-8.4 8.3z" />
			<path id="&lt;Path&gt;" fill-rule="evenodd" class="s0"
				d="m164.2 634c-4.7 0-8.4-3.7-8.4-8.3 0-4.6 3.7-8.3 8.4-8.3 4.6 0 8.4 3.7 8.4 8.3 0 4.6-3.8 8.3-8.4 8.3z" />
			<path id="&lt;Path&gt;" fill-rule="evenodd" class="s0"
				d="m636.5 634.1c-4.6 0-8.4-3.8-8.4-8.4 0-4.6 3.8-8.3 8.4-8.3 4.6 0 8.4 3.7 8.4 8.3 0 4.6-3.8 8.4-8.4 8.4z" />
			<path id="&lt;Path&gt;" fill-rule="evenodd" class="s0"
				d="m185.7 655.5c-4.7 0-8.4-3.7-8.4-8.3 0-4.6 3.7-8.3 8.4-8.3 4.6 0 8.3 3.7 8.3 8.3 0 4.6-3.7 8.3-8.3 8.3z" />
			<path id="&lt;Path&gt;" fill-rule="evenodd" class="s0"
				d="m615.1 655.5c-4.7 0-8.4-3.7-8.4-8.3 0-4.6 3.7-8.3 8.4-8.3 4.6 0 8.3 3.7 8.3 8.3 0 4.6-3.7 8.3-8.3 8.3z" />
			<path id="&lt;Path&gt;" fill-rule="evenodd" class="s0"
				d="m142.7 612.5c-4.5 0-8.2-3.7-8.2-8.2 0-4.6 3.7-8.3 8.2-8.3 4.6 0 8.3 3.7 8.3 8.3 0 4.5-3.7 8.2-8.3 8.2z" />
			<path id="&lt;Path&gt;" fill-rule="evenodd" class="s0"
				d="m658 612.5c-4.6 0-8.3-3.7-8.3-8.2 0-4.6 3.7-8.3 8.3-8.3 4.6 0 8.3 3.7 8.3 8.3 0 4.5-3.7 8.2-8.3 8.2z" />
			<path id="&lt;Path&gt;" fill-rule="evenodd" class="s0"
				d="m78.4 333.4c-4.6 0-8.3-3.7-8.3-8.2 0-4.6 3.7-8.3 8.3-8.3 4.5 0 8.2 3.7 8.2 8.3 0 4.5-3.7 8.2-8.2 8.2z" />
			<path id="&lt;Path&gt;" fill-rule="evenodd" class="s0"
				d="m722.4 333.4c-4.5 0-8.2-3.7-8.2-8.2 0-4.6 3.7-8.3 8.2-8.3 4.6 0 8.3 3.7 8.3 8.3 0 4.5-3.7 8.2-8.3 8.2z" />
			<path id="&lt;Path&gt;" fill-rule="evenodd" class="s0"
				d="m701 269c-4.6 0-8.3-3.7-8.3-8.3 0-4.5 3.7-8.2 8.3-8.2 4.5 0 8.2 3.7 8.2 8.2 0 4.6-3.7 8.3-8.2 8.3z" />
			<path id="&lt;Path&gt;" fill-rule="evenodd" class="s0"
				d="m99.8 269c-4.5 0-8.2-3.7-8.2-8.3 0-4.5 3.7-8.2 8.2-8.2 4.6 0 8.3 3.7 8.3 8.2 0 4.6-3.7 8.3-8.3 8.3z" />
			<path id="&lt;Path&gt;" fill-rule="evenodd" class="s0"
				d="m293.1 719.8c-4.6 0-8.3-3.6-8.3-8.2 0-4.5 3.7-8.2 8.3-8.2 4.5 0 8.2 3.7 8.2 8.2 0 4.6-3.7 8.2-8.2 8.2z" />
			<path id="&lt;Path&gt;" fill-rule="evenodd" class="s0"
				d="m507.7 719.8c-4.5 0-8.2-3.6-8.2-8.2 0-4.5 3.7-8.2 8.2-8.2 4.6 0 8.3 3.7 8.3 8.2 0 4.6-3.7 8.2-8.3 8.2z" />
			<path id="&lt;Path&gt;" fill-rule="evenodd" class="s0"
				d="m421.9 75.7c-4.6 0-8.2-3.7-8.2-8.2 0-4.5 3.6-8.2 8.2-8.2 4.5 0 8.1 3.7 8.1 8.2 0 4.5-3.6 8.2-8.1 8.2z" />
			<path id="&lt;Path&gt;" fill-rule="evenodd" class="s0"
				d="m378.9 75.7c-4.5 0-8.2-3.7-8.2-8.2 0-4.5 3.7-8.2 8.2-8.2 4.5 0 8.2 3.7 8.2 8.2 0 4.5-3.7 8.2-8.2 8.2z" />
			<path id="&lt;Path&gt;" fill-rule="evenodd" class="s0"
				d="m207.2 676.9c-4.6 0-8.2-3.7-8.2-8.2 0-4.6 3.6-8.2 8.2-8.2 4.5 0 8.1 3.6 8.1 8.2 0 4.5-3.6 8.2-8.1 8.2z" />
			<path id="&lt;Path&gt;" fill-rule="evenodd" class="s0"
				d="m593.6 676.9c-4.5 0-8.2-3.7-8.2-8.2 0-4.6 3.7-8.2 8.2-8.2 4.5 0 8.2 3.6 8.2 8.2 0 4.5-3.7 8.2-8.2 8.2z" />
			<path id="&lt;Path&gt;" fill-rule="evenodd" class="s0"
				d="m121.2 590.9c-4.4 0-8-3.6-8-8.1 0-4.5 3.6-8.1 8-8.1 4.4 0 8 3.6 8 8.1 0 4.5-3.6 8.1-8 8.1z" />
			<path id="&lt;Path&gt;" fill-rule="evenodd" class="s0"
				d="m679.4 590.9c-4.4 0-8-3.6-8-8.1 0-4.5 3.6-8.1 8-8.1 4.5 0 8.1 3.6 8.1 8.1 0 4.5-3.6 8.1-8.1 8.1z" />
			<path id="&lt;Path&gt;" fill-rule="evenodd" class="s0"
				d="m400.3 741.2c-4.4 0-8-3.6-8-8.1 0-4.5 3.6-8.1 8-8.1 4.5 0 8.1 3.6 8.1 8.1 0 4.5-3.6 8.1-8.1 8.1z" />
			<path id="&lt;Path&gt;" fill-rule="evenodd" class="s0"
				d="m529.1 97c-4.4 0-8-3.6-8-8 0-4.4 3.6-8 8-8 4.4 0 7.9 3.6 7.9 8 0 4.4-3.5 8-7.9 8z" />
			<path id="&lt;Path&gt;" fill-rule="evenodd" class="s0"
				d="m271.5 97c-4.4 0-8-3.6-8-8 0-4.4 3.6-8 8-8 4.4 0 7.9 3.6 7.9 8 0 4.4-3.5 8-7.9 8z" />
			<path id="&lt;Path&gt;" fill-rule="evenodd" class="s0"
				d="m722.3 504.8c-4.4 0-7.9-3.5-7.9-7.9 0-4.3 3.5-7.8 7.9-7.8 4.4 0 7.9 3.5 7.9 7.8 0 4.4-3.5 7.9-7.9 7.9z" />
			<path id="&lt;Path&gt;" fill-rule="evenodd" class="s0"
				d="m78.2 504.8c-4.4 0-7.9-3.5-7.9-7.9 0-4.3 3.5-7.8 7.9-7.8 4.4 0 7.9 3.5 7.9 7.8 0 4.4-3.5 7.9-7.9 7.9z" />
			<path id="&lt;Path&gt;" fill-rule="evenodd" class="s0"
				d="m357.3 741c-4.3 0-7.9-3.5-7.9-7.9 0-4.3 3.6-7.9 7.9-7.9 4.4 0 7.9 3.6 7.9 7.9 0 4.4-3.5 7.9-7.9 7.9z" />
			<path id="&lt;Path&gt;" fill-rule="evenodd" class="s0"
				d="m443.2 741c-4.4 0-7.9-3.5-7.9-7.9 0-4.3 3.5-7.9 7.9-7.9 4.4 0 7.9 3.6 7.9 7.9 0 4.4-3.5 7.9-7.9 7.9z" />
			<path id="&lt;Path&gt;" fill-rule="evenodd" class="s0"
				d="m464.7 75.3c-4.4 0-7.9-3.5-7.9-7.8 0-4.3 3.5-7.7 7.9-7.7 4.3 0 7.8 3.4 7.8 7.7 0 4.3-3.5 7.8-7.8 7.8z" />
			<path id="&lt;Path&gt;" fill-rule="evenodd" class="s0"
				d="m335.9 75.3c-4.4 0-7.9-3.5-7.9-7.8 0-4.3 3.5-7.7 7.9-7.7 4.3 0 7.8 3.4 7.8 7.7 0 4.3-3.5 7.8-7.8 7.8z" />
			<path id="&lt;Path&gt;" fill-rule="evenodd" class="s0"
				d="m228.5 697.9c-4.3 0-7.8-3.5-7.8-7.7 0-4.3 3.5-7.8 7.8-7.8 4.3 0 7.8 3.5 7.8 7.8 0 4.2-3.5 7.7-7.8 7.7z" />
			<path id="&lt;Path&gt;" fill-rule="evenodd" class="s0"
				d="m572 697.9c-4.3 0-7.8-3.5-7.8-7.7 0-4.3 3.5-7.8 7.8-7.8 4.4 0 7.9 3.5 7.9 7.8 0 4.2-3.5 7.7-7.9 7.7z" />
			<path id="&lt;Path&gt;" fill-rule="evenodd" class="s0"
				d="m636.5 161c-4.2 0-7.7-3.4-7.7-7.6 0-4.2 3.5-7.6 7.7-7.6 4.3 0 7.7 3.4 7.7 7.6 0 4.2-3.4 7.6-7.7 7.6z" />
			<path id="&lt;Path&gt;" fill-rule="evenodd" class="s0"
				d="m164.2 161c-4.2 0-7.7-3.4-7.7-7.6 0-4.2 3.5-7.6 7.7-7.6 4.2 0 7.6 3.4 7.6 7.6 0 4.2-3.4 7.6-7.6 7.6z" />
			<path id="&lt;Path&gt;" fill-rule="evenodd" class="s0"
				d="m701 568.9c-4.2 0-7.6-3.4-7.6-7.6 0-4.1 3.4-7.5 7.6-7.5 4.2 0 7.5 3.4 7.5 7.5 0 4.2-3.3 7.6-7.5 7.6z" />
			<path id="&lt;Path&gt;" fill-rule="evenodd" class="s0"
				d="m658 182.4c-4.2 0-7.6-3.4-7.6-7.5 0-4.2 3.4-7.6 7.6-7.6 4.2 0 7.6 3.4 7.6 7.6 0 4.1-3.4 7.5-7.6 7.5z" />
			<path id="&lt;Path&gt;" fill-rule="evenodd" class="s0"
				d="m142.7 182.4c-4.2 0-7.5-3.4-7.5-7.5 0-4.2 3.3-7.6 7.5-7.6 4.2 0 7.6 3.4 7.6 7.6 0 4.1-3.4 7.5-7.6 7.5z" />
			<path id="&lt;Path&gt;" fill-rule="evenodd" class="s0"
				d="m99.8 568.9c-4.2 0-7.6-3.4-7.6-7.6 0-4.1 3.4-7.5 7.6-7.5 4.2 0 7.6 3.4 7.6 7.5 0 4.2-3.4 7.6-7.6 7.6z" />
			<path id="&lt;Path&gt;" fill-rule="evenodd" class="s0"
				d="m78.3 289.8c-4.1 0-7.5-3.4-7.5-7.6 0-4.2 3.4-7.5 7.5-7.5 4.2 0 7.6 3.3 7.6 7.5 0 4.2-3.4 7.6-7.6 7.6z" />
			<path id="&lt;Path&gt;" fill-rule="evenodd" class="s0"
				d="m722.4 289.8c-4.2 0-7.5-3.4-7.5-7.6 0-4.2 3.3-7.5 7.5-7.5 4.2 0 7.6 3.3 7.6 7.5 0 4.2-3.4 7.6-7.6 7.6z" />
			<path id="&lt;Path&gt;" fill-rule="evenodd" class="s0"
				d="m615.1 139.5c-4.2 0-7.6-3.4-7.6-7.6 0-4.1 3.4-7.5 7.6-7.5 4.2 0 7.6 3.4 7.6 7.5 0 4.2-3.4 7.6-7.6 7.6z" />
			<path id="&lt;Path&gt;" fill-rule="evenodd" class="s0"
				d="m185.7 139.4c-4.2 0-7.5-3.3-7.5-7.5 0-4.1 3.3-7.5 7.5-7.5 4.2 0 7.5 3.4 7.5 7.5 0 4.2-3.3 7.5-7.5 7.5z" />
			<path id="&lt;Path&gt;" fill-rule="evenodd" class="s0"
				d="m56.9 397.1c-4.2 0-7.5-3.4-7.5-7.5 0-4.2 3.3-7.5 7.5-7.5 4.1 0 7.5 3.3 7.5 7.5 0 4.1-3.4 7.5-7.5 7.5z" />
			<path id="&lt;Path&gt;" fill-rule="evenodd" class="s0"
				d="m743.9 397.1c-4.1 0-7.5-3.4-7.5-7.5 0-4.2 3.4-7.5 7.5-7.5 4.2 0 7.5 3.3 7.5 7.5 0 4.1-3.3 7.5-7.5 7.5z" />
			<path id="&lt;Path&gt;" fill-rule="evenodd" class="s0"
				d="m679.5 203.8c-4.1 0-7.5-3.3-7.5-7.5 0-4.1 3.4-7.4 7.5-7.4 4.1 0 7.4 3.3 7.4 7.4 0 4.2-3.3 7.5-7.4 7.5z" />
			<path id="&lt;Path&gt;" fill-rule="evenodd" class="s0"
				d="m121.3 203.8c-4.1 0-7.5-3.3-7.5-7.5 0-4.1 3.4-7.4 7.5-7.4 4.1 0 7.4 3.3 7.4 7.4 0 4.2-3.3 7.5-7.4 7.5z" />
			<path id="&lt;Path&gt;" fill-rule="evenodd" class="s0"
				d="m743.9 440c-4.1 0-7.4-3.4-7.4-7.5 0-4.1 3.3-7.5 7.4-7.5 4.1 0 7.5 3.4 7.5 7.5 0 4.1-3.4 7.5-7.5 7.5z" />
			<path id="&lt;Path&gt;" fill-rule="evenodd" class="s0"
				d="m486.3 740.5c-4.2 0-7.5-3.3-7.5-7.4 0-4.1 3.3-7.5 7.5-7.5 4.1 0 7.4 3.4 7.4 7.5 0 4.1-3.3 7.4-7.4 7.4z" />
			<path id="&lt;Path&gt;" fill-rule="evenodd" class="s0"
				d="m314.5 740.5c-4.1 0-7.4-3.3-7.4-7.4 0-4.1 3.3-7.5 7.4-7.5 4.1 0 7.4 3.4 7.4 7.5 0 4.1-3.3 7.4-7.4 7.4z" />
			<path id="&lt;Path&gt;" fill-rule="evenodd" class="s0"
				d="m56.8 439.9c-4.1 0-7.3-3.3-7.3-7.4 0-4.1 3.2-7.4 7.3-7.4 4.1 0 7.4 3.3 7.4 7.4 0 4.1-3.3 7.4-7.4 7.4z" />
			<path id="&lt;Path&gt;" fill-rule="evenodd" class="s0"
				d="m56.8 354c-4 0-7.3-3.3-7.3-7.4 0-4 3.3-7.3 7.3-7.3 4 0 7.2 3.3 7.2 7.3 0 4.1-3.2 7.4-7.2 7.4z" />
			<path id="&lt;Path&gt;" fill-rule="evenodd" class="s0"
				d="m250 719c-4 0-7.3-3.3-7.3-7.4 0-4 3.3-7.3 7.3-7.3 4 0 7.3 3.3 7.3 7.3 0 4.1-3.3 7.4-7.3 7.4z" />
			<path id="&lt;Path&gt;" fill-rule="evenodd" class="s0"
				d="m743.8 354c-4 0-7.3-3.3-7.3-7.4 0-4 3.3-7.3 7.3-7.3 4 0 7.3 3.3 7.3 7.3 0 4.1-3.3 7.4-7.3 7.4z" />
			<path id="&lt;Path&gt;" fill-rule="evenodd" class="s0"
				d="m593.5 117.8c-4 0-7.3-3.3-7.3-7.3 0-4.1 3.3-7.4 7.3-7.4 4 0 7.3 3.3 7.3 7.4 0 4-3.3 7.3-7.3 7.3z" />
			<path id="&lt;Path&gt;" fill-rule="evenodd" class="s0"
				d="m207.1 117.8c-4.1 0-7.3-3.3-7.3-7.3 0-4.1 3.2-7.4 7.3-7.4 4 0 7.2 3.3 7.2 7.4 0 4-3.2 7.3-7.2 7.3z" />
			<path id="&lt;Path&gt;" fill-rule="evenodd" class="s0"
				d="m550.6 719c-4 0-7.3-3.3-7.3-7.4 0-4 3.3-7.3 7.3-7.3 4 0 7.2 3.3 7.2 7.3 0 4.1-3.2 7.4-7.2 7.4z" />
			<path id="&lt;Path&gt;" fill-rule="evenodd" class="s0"
				d="m507.6 74.8c-4 0-7.2-3.3-7.2-7.3 0-4 3.2-7.2 7.2-7.2 4 0 7.2 3.2 7.2 7.2 0 4-3.2 7.3-7.2 7.3z" />
			<path id="&lt;Path&gt;" fill-rule="evenodd" class="s0"
				d="m292.9 74.7c-4 0-7.2-3.2-7.2-7.2 0-4 3.2-7.2 7.2-7.2 4 0 7.2 3.2 7.2 7.2 0 4-3.2 7.2-7.2 7.2z" />
			<path id="&lt;Path&gt;" fill-rule="evenodd" class="s0"
				d="m700.9 224.8c-3.9 0-7.1-3.1-7.1-7 0-3.8 3.2-6.9 7.1-6.9 3.9 0 7 3.1 7 6.9 0 3.9-3.1 7-7 7z" />
			<path id="&lt;Path&gt;" fill-rule="evenodd" class="s0"
				d="m99.7 224.8c-3.9 0-7-3.1-7-7 0-3.8 3.1-6.9 7-6.9 3.9 0 7.1 3.1 7.1 6.9 0 3.9-3.2 7-7.1 7z" />
			<path id="&lt;Path&gt;" fill-rule="evenodd" class="s0"
				d="m743.9 482.3c-3.9 0-7-3-7-6.8 0-3.9 3.1-6.9 7-6.9 3.8 0 6.9 3 6.9 6.9 0 3.8-3.1 6.8-6.9 6.8z" />
			<path id="&lt;Path&gt;" fill-rule="evenodd" class="s0"
				d="m78.3 546.7c-3.9 0-7-3-7-6.8 0-3.8 3.1-6.9 7-6.9 3.8 0 7 3.1 7 6.9 0 3.8-3.2 6.8-7 6.8z" />
			<path id="&lt;Path&gt;" fill-rule="evenodd" class="s0"
				d="m722.4 546.7c-3.9 0-7-3-7-6.8 0-3.8 3.1-6.9 7-6.9 3.8 0 7 3.1 7 6.9 0 3.8-3.2 6.8-7 6.8z" />
			<path id="&lt;Path&gt;" fill-rule="evenodd" class="s0"
				d="m56.8 482.3c-3.8 0-6.9-3-6.9-6.8 0-3.9 3.1-6.9 6.9-6.9 3.9 0 7 3 7 6.9 0 3.8-3.1 6.8-7 6.8z" />
			<path id="&lt;Path&gt;" fill-rule="evenodd" class="s0"
				d="m400.4 52.9c-3.8 0-6.9-3.1-6.9-6.9 0-3.7 3.1-6.8 6.9-6.8 3.8 0 6.9 3.1 6.9 6.8 0 3.8-3.1 6.9-6.9 6.9z" />
			<path id="&lt;Path&gt;" fill-rule="evenodd" class="s0"
				d="m572.2 95.8c-3.8 0-6.9-3.1-6.9-6.8 0-3.8 3.1-6.8 6.9-6.8 3.7 0 6.8 3 6.8 6.8 0 3.7-3.1 6.8-6.8 6.8z" />
			<path id="&lt;Path&gt;" fill-rule="evenodd" class="s0"
				d="m228.6 95.8c-3.7 0-6.8-3.1-6.8-6.8 0-3.8 3.1-6.8 6.8-6.8 3.8 0 6.8 3 6.8 6.8 0 3.7-3 6.8-6.8 6.8z" />
			<path id="&lt;Path&gt;" fill-rule="evenodd" class="s0"
				d="m443.3 52.8c-3.7 0-6.7-3-6.7-6.8 0-3.7 3-6.7 6.7-6.7 3.7 0 6.8 3 6.8 6.7 0 3.8-3.1 6.8-6.8 6.8z" />
			<path id="&lt;Path&gt;" fill-rule="evenodd" class="s0"
				d="m357.4 52.8c-3.7 0-6.7-3-6.7-6.8 0-3.7 3-6.7 6.7-6.7 3.8 0 6.8 3 6.8 6.7 0 3.8-3 6.8-6.8 6.8z" />
			<path id="&lt;Path&gt;" fill-rule="evenodd" class="s0"
				d="m378.9 761.3c-3.7 0-6.7-3-6.7-6.7 0-3.8 3-6.8 6.7-6.8 3.7 0 6.7 3 6.7 6.8 0 3.7-3 6.7-6.7 6.7z" />
			<path id="&lt;Path&gt;" fill-rule="evenodd" class="s0"
				d="m421.8 761.3c-3.7 0-6.7-3-6.7-6.7 0-3.8 3-6.8 6.7-6.8 3.8 0 6.8 3 6.8 6.8 0 3.7-3 6.7-6.8 6.7z" />
			<path id="&lt;Path&gt;" fill-rule="evenodd" class="s0"
				d="m743.9 310.4c-3.7 0-6.7-3-6.7-6.7 0-3.7 3-6.7 6.7-6.7 3.6 0 6.6 3 6.6 6.7 0 3.7-3 6.7-6.6 6.7z" />
			<path id="&lt;Path&gt;" fill-rule="evenodd" class="s0"
				d="m56.8 310.4c-3.7 0-6.6-3-6.6-6.7 0-3.7 2.9-6.7 6.6-6.7 3.7 0 6.7 3 6.7 6.7 0 3.7-3 6.7-6.7 6.7z" />
			<path id="&lt;Path&gt;" fill-rule="evenodd" class="s0"
				d="m529.1 739.7c-3.6 0-6.5-3-6.5-6.6 0-3.7 2.9-6.6 6.5-6.6 3.6 0 6.5 2.9 6.5 6.6 0 3.6-2.9 6.6-6.5 6.6z" />
			<path id="&lt;Path&gt;" fill-rule="evenodd" class="s0"
				d="m271.5 739.7c-3.6 0-6.6-3-6.6-6.6 0-3.7 3-6.6 6.6-6.6 3.6 0 6.5 2.9 6.5 6.6 0 3.6-2.9 6.6-6.5 6.6z" />
			<path id="&lt;Path&gt;" fill-rule="evenodd" class="s0"
				d="m657.9 653.8c-3.6 0-6.5-2.9-6.5-6.6 0-3.6 2.9-6.6 6.5-6.6 3.6 0 6.6 3 6.6 6.6 0 3.7-3 6.6-6.6 6.6z" />
			<path id="&lt;Path&gt;" fill-rule="evenodd" class="s0"
				d="m142.6 653.8c-3.6 0-6.5-2.9-6.5-6.6 0-3.6 2.9-6.6 6.5-6.6 3.7 0 6.6 3 6.6 6.6 0 3.7-2.9 6.6-6.6 6.6z" />
			<path id="&lt;Path&gt;" fill-rule="evenodd" class="s0"
				d="m636.4 675.3c-3.6 0-6.5-3-6.5-6.6 0-3.6 2.9-6.6 6.5-6.6 3.7 0 6.6 3 6.6 6.6 0 3.6-2.9 6.6-6.6 6.6z" />
			<path id="&lt;Path&gt;" fill-rule="evenodd" class="s0"
				d="m164.1 675.3c-3.6 0-6.5-3-6.5-6.6 0-3.7 2.9-6.6 6.5-6.6 3.6 0 6.5 2.9 6.5 6.6 0 3.6-2.9 6.6-6.5 6.6z" />
			<path id="&lt;Path&gt;" fill-rule="evenodd" class="s0"
				d="m78.2 245.7c-3.6 0-6.4-2.8-6.4-6.4 0-3.6 2.8-6.4 6.4-6.4 3.6 0 6.5 2.8 6.5 6.4 0 3.6-2.9 6.4-6.5 6.4z" />
			<path id="&lt;Path&gt;" fill-rule="evenodd" class="s0"
				d="m722.3 245.7c-3.6 0-6.4-2.8-6.4-6.4 0-3.6 2.8-6.4 6.4-6.4 3.6 0 6.5 2.8 6.5 6.4 0 3.6-2.9 6.4-6.5 6.4z" />
			<path id="&lt;Path&gt;" fill-rule="evenodd" class="s0"
				d="m679.4 632.2c-3.6 0-6.5-2.9-6.5-6.4 0-3.6 2.9-6.5 6.5-6.5 3.5 0 6.4 2.9 6.4 6.5 0 3.5-2.9 6.4-6.4 6.4z" />
			<path id="&lt;Path&gt;" fill-rule="evenodd" class="s0"
				d="m121.1 632.2c-3.5 0-6.4-2.9-6.4-6.4 0-3.6 2.9-6.5 6.4-6.5 3.6 0 6.5 2.9 6.5 6.5 0 3.5-2.9 6.4-6.5 6.4z" />
			<path id="&lt;Path&gt;" fill-rule="evenodd" class="s0"
				d="m335.9 760.7c-3.5 0-6.3-2.7-6.3-6.1 0-3.5 2.8-6.2 6.3-6.2 3.5 0 6.3 2.7 6.3 6.2 0 3.4-2.8 6.1-6.3 6.1z" />
			<path id="&lt;Path&gt;" fill-rule="evenodd" class="s0"
				d="m464.7 760.7c-3.4 0-6.3-2.7-6.3-6.1 0-3.5 2.9-6.2 6.3-6.2 3.5 0 6.3 2.7 6.3 6.2 0 3.4-2.8 6.1-6.3 6.1z" />
			<path id="&lt;Path&gt;" fill-rule="evenodd" class="s0"
				d="m615 696.3c-3.4 0-6.3-2.7-6.3-6.2 0-3.4 2.9-6.1 6.3-6.1 3.5 0 6.3 2.7 6.3 6.1 0 3.5-2.8 6.2-6.3 6.2z" />
			<path id="&lt;Path&gt;" fill-rule="evenodd" class="s0"
				d="m185.6 696.3c-3.4 0-6.3-2.7-6.3-6.2 0-3.4 2.9-6.1 6.3-6.1 3.5 0 6.3 2.7 6.3 6.1 0 3.5-2.8 6.2-6.3 6.2z" />
			<path id="&lt;Path&gt;" fill-rule="evenodd" class="s0"
				d="m314.5 52.2c-3.4 0-6.2-2.8-6.2-6.2 0-3.3 2.8-6.1 6.2-6.1 3.4 0 6.2 2.8 6.2 6.1 0 3.4-2.8 6.2-6.2 6.2z" />
			<path id="&lt;Path&gt;" fill-rule="evenodd" class="s0"
				d="m486.3 52.2c-3.4 0-6.2-2.8-6.2-6.2 0-3.3 2.8-6.1 6.2-6.1 3.4 0 6.1 2.8 6.1 6.1 0 3.4-2.7 6.2-6.1 6.2z" />
			<path id="&lt;Path&gt;" fill-rule="evenodd" class="s0"
				d="m743.9 524.5c-3.4 0-6.1-2.8-6.1-6.1 0-3.4 2.7-6.1 6.1-6.1 3.4 0 6.1 2.7 6.1 6.1 0 3.3-2.7 6.1-6.1 6.1z" />
			<path id="&lt;Path&gt;" fill-rule="evenodd" class="s0"
				d="m701 610.3c-3.4 0-6.1-2.7-6.1-6 0-3.4 2.7-6.1 6.1-6.1 3.3 0 6.1 2.7 6.1 6.1 0 3.3-2.8 6-6.1 6z" />
			<path id="&lt;Path&gt;" fill-rule="evenodd" class="s0"
				d="m250.1 73.6c-3.4 0-6.1-2.7-6.1-6.1 0-3.3 2.7-6.1 6.1-6.1 3.4 0 6.1 2.8 6.1 6.1 0 3.4-2.7 6.1-6.1 6.1z" />
			<path id="&lt;Path&gt;" fill-rule="evenodd" class="s0"
				d="m550.7 73.6c-3.4 0-6.1-2.7-6.1-6.1 0-3.3 2.7-6.1 6.1-6.1 3.3 0 6.1 2.8 6.1 6.1 0 3.4-2.8 6.1-6.1 6.1z" />
			<path id="&lt;Path&gt;" fill-rule="evenodd" class="s0"
				d="m56.9 524.5c-3.4 0-6.1-2.8-6.1-6.1 0-3.4 2.7-6.1 6.1-6.1 3.3 0 6.1 2.7 6.1 6.1 0 3.3-2.8 6.1-6.1 6.1z" />
			<path id="&lt;Path&gt;" fill-rule="evenodd" class="s0"
				d="m99.8 610.3c-3.3 0-6.1-2.7-6.1-6 0-3.4 2.8-6.1 6.1-6.1 3.4 0 6.1 2.7 6.1 6.1 0 3.3-2.7 6-6.1 6z" />
			<path id="&lt;Path&gt;" fill-rule="evenodd" class="s0"
				d="m765.4 417.1c-3.4 0-6-2.7-6-6.1 0-3.3 2.6-6 6-6 3.3 0 6 2.7 6 6 0 3.4-2.7 6.1-6 6.1z" />
			<path id="&lt;Path&gt;" fill-rule="evenodd" class="s0"
				d="m35.4 417.1c-3.3 0-6-2.7-6-6.1 0-3.3 2.7-6 6-6 3.3 0 6 2.7 6 6 0 3.4-2.7 6.1-6 6.1z" />
			<path id="&lt;Path&gt;" fill-rule="evenodd" class="s0"
				d="m765.3 374.1c-3.2 0-5.9-2.7-5.9-6 0-3.3 2.7-6 5.9-6 3.3 0 5.9 2.7 5.9 6 0 3.3-2.6 6-5.9 6z" />
			<path id="&lt;Path&gt;" fill-rule="evenodd" class="s0"
				d="m35.3 374.1c-3.2 0-5.9-2.7-5.9-6 0-3.3 2.7-5.9 5.9-5.9 3.3 0 5.9 2.6 5.9 5.9 0 3.3-2.6 6-5.9 6z" />
			<path id="&lt;Path&gt;" fill-rule="evenodd" class="s0"
				d="m593.5 717.5c-3.2 0-5.8-2.6-5.8-5.9 0-3.2 2.6-5.8 5.8-5.8 3.2 0 5.8 2.6 5.8 5.8 0 3.3-2.6 5.9-5.8 5.9z" />
			<path id="&lt;Path&gt;" fill-rule="evenodd" class="s0"
				d="m207 717.5c-3.2 0-5.7-2.6-5.7-5.9 0-3.2 2.5-5.8 5.7-5.8 3.2 0 5.8 2.6 5.8 5.8 0 3.3-2.6 5.9-5.8 5.9z" />
			<path id="&lt;Path&gt;" fill-rule="evenodd" class="s0"
				d="m35.3 459.6c-3.2 0-5.7-2.5-5.7-5.6 0-3.1 2.5-5.6 5.7-5.6 3.1 0 5.7 2.5 5.7 5.6 0 3.1-2.6 5.6-5.7 5.6z" />
			<path id="&lt;Path&gt;" fill-rule="evenodd" class="s0"
				d="m765.3 459.6c-3.2 0-5.7-2.5-5.7-5.6 0-3.1 2.5-5.6 5.7-5.6 3.1 0 5.7 2.5 5.7 5.6 0 3.1-2.6 5.6-5.7 5.6z" />
			<path id="&lt;Path&gt;" fill-rule="evenodd" class="s0"
				d="m56.8 266.2c-3.1 0-5.6-2.4-5.6-5.4 0-3.1 2.5-5.5 5.6-5.5 3.1 0 5.6 2.4 5.6 5.5 0 3-2.5 5.4-5.6 5.4z" />
			<path id="&lt;Path&gt;" fill-rule="evenodd" class="s0"
				d="m743.8 266.2c-3.1 0-5.6-2.4-5.6-5.4 0-3.1 2.5-5.5 5.6-5.5 3.1 0 5.6 2.4 5.6 5.5 0 3-2.5 5.4-5.6 5.4z" />
			<path id="&lt;Path&gt;" fill-rule="evenodd" class="s0"
				d="m78.3 588.2c-3 0-5.5-2.4-5.5-5.4 0-3 2.5-5.4 5.5-5.4 3 0 5.5 2.4 5.5 5.4 0 3-2.5 5.4-5.5 5.4z" />
			<path id="&lt;Path&gt;" fill-rule="evenodd" class="s0"
				d="m722.4 588.2c-3 0-5.5-2.4-5.5-5.4 0-3 2.5-5.4 5.5-5.4 3 0 5.5 2.4 5.5 5.4 0 3-2.5 5.4-5.5 5.4z" />
			<path id="&lt;Path&gt;" fill-rule="evenodd" class="s0"
				d="m142.7 137.3c-3 0-5.5-2.4-5.5-5.4 0-3 2.5-5.4 5.5-5.4 3.1 0 5.5 2.4 5.5 5.4 0 3-2.4 5.4-5.5 5.4z" />
			<path id="&lt;Path&gt;" fill-rule="evenodd" class="s0"
				d="m658 137.3c-3 0-5.5-2.4-5.5-5.4 0-3 2.5-5.4 5.5-5.4 3 0 5.5 2.4 5.5 5.4 0 3-2.5 5.4-5.5 5.4z" />
			<path id="&lt;Path&gt;" fill-rule="evenodd" class="s0"
				d="m293 760c-3 0-5.5-2.5-5.5-5.4 0-3 2.5-5.5 5.5-5.5 3 0 5.5 2.5 5.5 5.5 0 2.9-2.5 5.4-5.5 5.4z" />
			<path id="&lt;Path&gt;" fill-rule="evenodd" class="s0"
				d="m679.5 158.8c-3 0-5.5-2.4-5.5-5.4 0-3 2.5-5.4 5.5-5.4 3 0 5.4 2.4 5.4 5.4 0 3-2.4 5.4-5.4 5.4z" />
			<path id="&lt;Path&gt;" fill-rule="evenodd" class="s0"
				d="m121.3 158.8c-3.1 0-5.5-2.4-5.5-5.4 0-3 2.4-5.4 5.5-5.4 3 0 5.4 2.4 5.4 5.4 0 3-2.4 5.4-5.4 5.4z" />
			<path id="&lt;Path&gt;" fill-rule="evenodd" class="s0"
				d="m507.7 760c-3 0-5.5-2.5-5.5-5.4 0-3 2.5-5.5 5.5-5.5 3 0 5.5 2.5 5.5 5.5 0 2.9-2.5 5.4-5.5 5.4z" />
			<path id="&lt;Path&gt;" fill-rule="evenodd" class="s0"
				d="m636.6 115.8c-3 0-5.4-2.4-5.4-5.3 0-3 2.4-5.4 5.4-5.4 2.9 0 5.4 2.4 5.4 5.4 0 2.9-2.5 5.3-5.4 5.3z" />
			<path id="&lt;Path&gt;" fill-rule="evenodd" class="s0"
				d="m765.4 330.5c-3 0-5.4-2.4-5.4-5.3 0-3 2.4-5.4 5.4-5.4 3 0 5.4 2.4 5.4 5.4 0 2.9-2.4 5.3-5.4 5.3z" />
			<path id="&lt;Path&gt;" fill-rule="evenodd" class="s0"
				d="m35.4 330.5c-3 0-5.4-2.4-5.4-5.3 0-3 2.4-5.4 5.4-5.4 3 0 5.4 2.4 5.4 5.4 0 2.9-2.4 5.3-5.4 5.3z" />
			<path id="&lt;Path&gt;" fill-rule="evenodd" class="s0"
				d="m164.2 115.8c-2.9 0-5.3-2.4-5.3-5.3 0-3 2.4-5.4 5.3-5.4 3 0 5.4 2.4 5.4 5.4 0 2.9-2.4 5.3-5.4 5.3z" />
			<path id="&lt;Path&gt;" fill-rule="evenodd" class="s0"
				d="m700.9 180.1c-2.9 0-5.2-2.3-5.2-5.2 0-2.9 2.3-5.3 5.2-5.3 2.9 0 5.2 2.4 5.2 5.3 0 2.9-2.3 5.2-5.2 5.2z" />
			<path id="&lt;Path&gt;" fill-rule="evenodd" class="s0"
				d="m421.8 29.8c-2.9 0-5.2-2.3-5.2-5.2 0-2.9 2.3-5.2 5.2-5.2 2.8 0 5.2 2.3 5.2 5.2 0 2.9-2.4 5.2-5.2 5.2z" />
			<path id="&lt;Path&gt;" fill-rule="evenodd" class="s0"
				d="m378.8 29.8c-2.8 0-5.1-2.3-5.1-5.2 0-2.9 2.3-5.2 5.1-5.2 2.9 0 5.2 2.3 5.2 5.2 0 2.9-2.3 5.2-5.2 5.2z" />
			<path id="&lt;Path&gt;" fill-rule="evenodd" class="s0"
				d="m99.7 180.1c-2.8 0-5.1-2.3-5.1-5.2 0-2.9 2.3-5.3 5.1-5.3 2.9 0 5.2 2.4 5.2 5.3 0 2.9-2.3 5.2-5.2 5.2z" />
			<path id="&lt;Path&gt;" fill-rule="evenodd" class="s0"
				d="m529.1 51.1c-2.8 0-5.1-2.2-5.1-5 0-2.8 2.3-5.1 5.1-5.1 2.8 0 5 2.3 5 5.1 0 2.8-2.2 5-5 5z" />
			<path id="&lt;Path&gt;" fill-rule="evenodd" class="s0"
				d="m228.5 738.2c-2.8 0-5-2.3-5-5.1 0-2.8 2.2-5.1 5-5.1 2.8 0 5.1 2.3 5.1 5.1 0 2.8-2.3 5.1-5.1 5.1z" />
			<path id="&lt;Path&gt;" fill-rule="evenodd" class="s0"
				d="m572 738.2c-2.8 0-5-2.3-5-5.1 0-2.8 2.2-5.1 5-5.1 2.8 0 5.1 2.3 5.1 5.1 0 2.8-2.3 5.1-5.1 5.1z" />
			<path id="&lt;Path&gt;" fill-rule="evenodd" class="s0"
				d="m271.4 51.1c-2.7 0-5-2.2-5-5 0-2.8 2.3-5.1 5-5.1 2.8 0 5.1 2.3 5.1 5.1 0 2.8-2.3 5-5.1 5z" />
			<path id="&lt;Path&gt;" fill-rule="evenodd" class="s0"
				d="m615 93.8c-2.8 0-5-2.1-5-4.8 0-2.7 2.2-4.8 5-4.8 2.7 0 4.9 2.1 4.9 4.8 0 2.7-2.2 4.8-4.9 4.8z" />
			<path id="&lt;Path&gt;" fill-rule="evenodd" class="s0"
				d="m185.6 93.8c-2.8 0-5-2.1-5-4.8 0-2.7 2.2-4.8 5-4.8 2.7 0 4.9 2.1 4.9 4.8 0 2.7-2.2 4.8-4.9 4.8z" />
			<path id="&lt;Path&gt;" fill-rule="evenodd" class="s0"
				d="m400.3 780.9c-2.8 0-5-2.2-5-4.9 0-2.6 2.2-4.8 5-4.8 2.7 0 4.9 2.2 4.9 4.8 0 2.7-2.2 4.9-4.9 4.9z" />
			<path id="&lt;Path&gt;" fill-rule="evenodd" class="s0"
				d="m765.3 501.6c-2.7 0-4.8-2.1-4.8-4.7 0-2.6 2.1-4.7 4.8-4.7 2.7 0 4.9 2.1 4.9 4.7 0 2.6-2.2 4.7-4.9 4.7z" />
			<path id="&lt;Path&gt;" fill-rule="evenodd" class="s0"
				d="m35.3 501.6c-2.6 0-4.8-2.1-4.8-4.7 0-2.6 2.2-4.7 4.8-4.7 2.7 0 4.9 2.1 4.9 4.7 0 2.6-2.2 4.7-4.9 4.7z" />
			<path id="&lt;Path&gt;" fill-rule="evenodd" class="s0"
				d="m336 29.2c-2.6 0-4.7-2-4.7-4.6 0-2.6 2.1-4.7 4.7-4.7 2.6 0 4.7 2.1 4.7 4.7 0 2.6-2.1 4.6-4.7 4.6z" />
			<path id="&lt;Path&gt;" fill-rule="evenodd" class="s0"
				d="m743.9 566c-2.6 0-4.7-2.1-4.7-4.7 0-2.5 2.1-4.6 4.7-4.6 2.6 0 4.7 2.1 4.7 4.6 0 2.6-2.1 4.7-4.7 4.7z" />
			<path id="&lt;Path&gt;" fill-rule="evenodd" class="s0"
				d="m464.8 29.2c-2.6 0-4.7-2-4.7-4.6 0-2.6 2.1-4.7 4.7-4.7 2.6 0 4.7 2.1 4.7 4.7 0 2.6-2.1 4.6-4.7 4.6z" />
			<path id="&lt;Path&gt;" fill-rule="evenodd" class="s0"
				d="m357.5 780.7c-2.6 0-4.7-2.1-4.7-4.7 0-2.5 2.1-4.6 4.7-4.6 2.5 0 4.6 2.1 4.6 4.6 0 2.6-2.1 4.7-4.6 4.7z" />
			<path id="&lt;Path&gt;" fill-rule="evenodd" class="s0"
				d="m443.3 780.7c-2.6 0-4.7-2.1-4.7-4.7 0-2.5 2.1-4.6 4.7-4.6 2.6 0 4.7 2.1 4.7 4.6 0 2.6-2.1 4.7-4.7 4.7z" />
			<path id="&lt;Path&gt;" fill-rule="evenodd" class="s0"
				d="m56.9 566c-2.6 0-4.7-2.1-4.7-4.7 0-2.5 2.1-4.6 4.7-4.6 2.6 0 4.7 2.1 4.7 4.6 0 2.6-2.1 4.7-4.7 4.7z" />
			<path id="&lt;Path&gt;" fill-rule="evenodd" class="s0"
				d="m722.4 200.9c-2.5 0-4.6-2-4.6-4.6 0-2.5 2.1-4.6 4.6-4.6 2.6 0 4.7 2.1 4.7 4.6 0 2.6-2.1 4.6-4.7 4.6z" />
			<path id="&lt;Path&gt;" fill-rule="evenodd" class="s0"
				d="m78.3 200.9c-2.5 0-4.6-2-4.6-4.6 0-2.5 2.1-4.6 4.6-4.6 2.6 0 4.6 2.1 4.6 4.6 0 2.6-2 4.6-4.6 4.6z" />
			<path id="&lt;Path&gt;" fill-rule="evenodd" class="s0"
				d="m765.3 286.6c-2.4 0-4.4-2-4.4-4.4 0-2.4 2-4.3 4.4-4.3 2.3 0 4.3 1.9 4.3 4.3 0 2.4-2 4.4-4.3 4.4z" />
			<path id="&lt;Path&gt;" fill-rule="evenodd" class="s0"
				d="m35.3 286.5c-2.4 0-4.3-1.9-4.3-4.3 0-2.3 1.9-4.2 4.3-4.2 2.4 0 4.3 1.9 4.3 4.2 0 2.4-1.9 4.3-4.3 4.3z" />
			<path id="&lt;Path&gt;" fill-rule="evenodd" class="s0"
				d="m593.5 71.8c-2.4 0-4.3-1.9-4.3-4.3 0-2.3 1.9-4.3 4.3-4.3 2.4 0 4.3 2 4.3 4.3 0 2.4-1.9 4.3-4.3 4.3z" />
			<path id="&lt;Path&gt;" fill-rule="evenodd" class="s0"
				d="m207 71.8c-2.4 0-4.3-1.9-4.3-4.3 0-2.3 1.9-4.3 4.3-4.3 2.4 0 4.3 2 4.3 4.3 0 2.4-1.9 4.3-4.3 4.3z" />
			<path id="&lt;Path&gt;" fill-rule="evenodd" class="s0"
				d="m250.1 758.5c-2.2 0-4-1.8-4-3.9 0-2.2 1.8-4 4-4 2.2 0 4 1.8 4 4 0 2.1-1.8 3.9-4 3.9z" />
			<path id="&lt;Path&gt;" fill-rule="evenodd" class="s0"
				d="m550.7 758.5c-2.3 0-4.1-1.8-4.1-3.9 0-2.2 1.8-4 4.1-4 2.2 0 4 1.8 4 4 0 2.1-1.8 3.9-4 3.9z" />
			<path id="&lt;Path&gt;" fill-rule="evenodd" class="s0"
				d="m786.8 393.5c-2.1 0-3.9-1.8-3.9-3.9 0-2.2 1.8-3.9 3.9-3.9 2.2 0 4 1.7 4 3.9 0 2.1-1.8 3.9-4 3.9z" />
			<path id="&lt;Path&gt;" fill-rule="evenodd" class="s0"
				d="m13.9 393.5c-2.1 0-3.9-1.8-3.9-3.9 0-2.2 1.8-3.9 3.9-3.9 2.2 0 4 1.7 4 3.9 0 2.1-1.8 3.9-4 3.9z" />
			<path id="&lt;Path&gt;" fill-rule="evenodd" class="s0"
				d="m486.3 779.9c-2.2 0-3.9-1.7-3.9-3.9 0-2.1 1.7-3.9 3.9-3.9 2.1 0 3.9 1.8 3.9 3.9 0 2.2-1.8 3.9-3.9 3.9z" />
			<path id="&lt;Path&gt;" fill-rule="evenodd" class="s0"
				d="m314.5 779.9c-2.2 0-3.9-1.7-3.9-3.9 0-2.1 1.7-3.9 3.9-3.9 2.2 0 3.9 1.8 3.9 3.9 0 2.2-1.7 3.9-3.9 3.9z" />
			<path id="&lt;Path&gt;" fill-rule="evenodd" class="s0"
				d="m786.8 436.3c-2.1 0-3.8-1.7-3.8-3.8 0-2.1 1.7-3.8 3.8-3.8 2.1 0 3.8 1.7 3.8 3.8 0 2.1-1.7 3.8-3.8 3.8z" />
			<path id="&lt;Path&gt;" fill-rule="evenodd" class="s0"
				d="m121.2 672.5c-2.1 0-3.7-1.7-3.7-3.8 0-2.1 1.6-3.9 3.7-3.9 2.1 0 3.8 1.8 3.8 3.9 0 2.1-1.7 3.8-3.8 3.8z" />
			<path id="&lt;Path&gt;" fill-rule="evenodd" class="s0"
				d="m743.8 221.6c-2 0-3.7-1.7-3.7-3.8 0-2.1 1.7-3.8 3.7-3.8 2.1 0 3.8 1.7 3.8 3.8 0 2.1-1.7 3.8-3.8 3.8z" />
			<path id="&lt;Path&gt;" fill-rule="evenodd" class="s0"
				d="m13.9 436.3c-2.1 0-3.8-1.7-3.8-3.8 0-2.1 1.7-3.8 3.8-3.8 2.1 0 3.8 1.7 3.8 3.8 0 2.1-1.7 3.8-3.8 3.8z" />
			<path id="&lt;Path&gt;" fill-rule="evenodd" class="s0"
				d="m679.5 672.5c-2.1 0-3.8-1.7-3.8-3.8 0-2.1 1.7-3.8 3.8-3.8 2 0 3.7 1.7 3.7 3.8 0 2.1-1.7 3.8-3.7 3.8z" />
			<path id="&lt;Path&gt;" fill-rule="evenodd" class="s0"
				d="m658 694c-2.1 0-3.8-1.7-3.8-3.8 0-2.2 1.7-3.9 3.8-3.9 2 0 3.7 1.7 3.7 3.9 0 2.1-1.7 3.8-3.7 3.8z" />
			<path id="&lt;Path&gt;" fill-rule="evenodd" class="s0"
				d="m56.8 221.6c-2.1 0-3.7-1.7-3.7-3.8 0-2.1 1.6-3.8 3.7-3.8 2.1 0 3.8 1.7 3.8 3.8 0 2.1-1.7 3.8-3.8 3.8z" />
			<path id="&lt;Path&gt;" fill-rule="evenodd" class="s0"
				d="m142.7 694c-2.1 0-3.8-1.8-3.8-3.9 0-2.1 1.7-3.8 3.8-3.8 2.1 0 3.7 1.7 3.7 3.8 0 2.1-1.6 3.9-3.7 3.9z" />
			<path id="&lt;Path&gt;" fill-rule="evenodd" class="s0"
				d="m292.8 28.2c1.9 0.1 3.6-1.5 3.7-3.4 0.1-2.1-1.4-3.7-3.4-3.8-1.9-0.1-3.7 1.6-3.8 3.4-0.1 1.9 1.6 3.7 3.5 3.8z" />
			<path id="&lt;Path&gt;" fill-rule="evenodd" class="s0"
				d="m507.8 28.2c1.9-0.1 3.5-1.8 3.4-3.8-0.1-2-1.7-3.5-3.7-3.4-2 0.1-3.6 1.9-3.5 3.8 0.1 1.8 2 3.5 3.8 3.4z" />
			<path id="&lt;Path&gt;" fill-rule="evenodd" class="s0"
				d="m13.7 350.2c2 0.1 3.6-1.4 3.7-3.5 0-2-1.5-3.6-3.5-3.6-2 0-3.7 1.7-3.7 3.6 0.1 1.8 1.6 3.4 3.5 3.5z" />
			<path id="&lt;Path&gt;" fill-rule="evenodd" class="s0"
				d="m99.7 643.6c-1.9 0-3.7 1.8-3.6 3.7 0 1.7 1.7 3.4 3.4 3.5 2 0.1 3.7-1.5 3.8-3.5 0-2-1.6-3.7-3.6-3.7z" />
			<path id="&lt;Path&gt;" fill-rule="evenodd" class="s0"
				d="m786.8 350.2c1.8 0 3.4-1.5 3.5-3.3 0.1-2.1-1.4-3.8-3.4-3.9-1.9 0-3.8 1.7-3.8 3.6 0 1.9 1.8 3.6 3.7 3.6z" />
			<path id="&lt;Path&gt;" fill-rule="evenodd" class="s0"
				d="m700.8 643.6c-2 0.1-3.6 1.8-3.5 3.8 0 1.8 1.9 3.5 3.8 3.4 1.9-0.1 3.3-1.7 3.3-3.6 0.1-2-1.6-3.6-3.6-3.6z" />
			<path id="&lt;Path&gt;" fill-rule="evenodd" class="s0"
				d="m35.3 536.6c-1.9 0-3.5 1.4-3.4 3.3 0 1.9 1.5 3.3 3.5 3.3 2 0 3.4-1.4 3.4-3.4-0.1-1.9-1.5-3.3-3.5-3.2z" />
			<path id="&lt;Path&gt;" fill-rule="evenodd" class="s0"
				d="m765.2 536.6c-1.9 0-3.4 1.5-3.4 3.3 0.1 1.9 1.6 3.3 3.6 3.3 2-0.1 3.4-1.5 3.3-3.4 0-1.9-1.5-3.3-3.5-3.2z" />
			<path id="&lt;Path&gt;" fill-rule="evenodd" class="s0"
				d="m164.2 708.3c-1.9 0-3.5 1.4-3.5 3.3 0 1.8 1.5 3.3 3.4 3.3 2 0 3.5-1.4 3.5-3.3 0-1.9-1.5-3.3-3.4-3.3z" />
			<path id="&lt;Path&gt;" fill-rule="evenodd" class="s0"
				d="m636.5 708.3c-1.9 0-3.4 1.4-3.4 3.3-0.1 1.8 1.4 3.3 3.4 3.3 1.9 0 3.4-1.3 3.4-3.2 0-1.9-1.4-3.4-3.4-3.4z" />
			<path id="&lt;Path&gt;" fill-rule="evenodd" class="s0"
				d="m228.3 49.3c1.9 0.1 3.5-1.3 3.6-3.1 0.1-1.9-1.5-3.4-3.4-3.4-1.8 0.1-3.1 1.3-3.2 3.1 0 1.9 1.2 3.2 3 3.4z" />
			<path id="&lt;Path&gt;" fill-rule="evenodd" class="s0"
				d="m572.3 49.3c1.7-0.1 3.1-1.5 3.1-3.2 0-1.9-1.5-3.3-3.4-3.3-1.8 0.1-3.1 1.4-3.1 3.2-0.1 2 1.4 3.4 3.4 3.3z" />
			<path id="&lt;Path&gt;" fill-rule="evenodd" class="s0"
				d="m786.6 472.2c-1.7 0.1-3 1.6-3 3.4 0.1 1.7 1.4 3.1 3.2 3 1.9 0 3.4-1.7 3.3-3.4-0.2-1.7-1.8-3-3.5-3z" />
			<path id="&lt;Path&gt;" fill-rule="evenodd" class="s0"
				d="m722.4 622.6c-1.6 0-3 1.3-3.1 2.9-0.1 1.7 1.2 3.3 2.9 3.4 1.6 0.1 3.3-1.5 3.3-3.1 0.1-1.5-1.5-3.2-3.1-3.2z" />
			<path id="&lt;Path&gt;" fill-rule="evenodd" class="s0"
				d="m78 622.6c-1.7 0.2-3 1.8-2.8 3.5 0.2 1.6 1.6 2.8 3.2 2.8 1.6-0.1 3.1-1.7 3-3.3-0.1-1.6-1.8-3.1-3.4-3z" />
			<path id="&lt;Path&gt;" fill-rule="evenodd" class="s0"
				d="m13.9 472.3c-1.6 0-3.1 1.5-3.1 3.2 0 1.6 1.3 2.9 2.8 3.1 1.6 0.1 3.3-1.4 3.4-3 0.1-1.6-1.5-3.3-3.1-3.3z" />
			<path id="&lt;Path&gt;" fill-rule="evenodd" class="s0"
				d="m400.2 6.2c1.4 0.1 3-1.2 3.2-2.8 0.2-1.6-1.3-3.3-2.9-3.4-1.5-0.1-3 1.2-3.2 2.8-0.2 1.7 1.2 3.3 2.9 3.4z" />
			<path id="&lt;Path&gt;" fill-rule="evenodd" class="s0"
				d="m614.8 730.3c-1.4 0.1-2.7 1.5-2.7 2.8 0 1.5 1.6 2.9 3.1 2.8 1.5-0.1 2.6-1.3 2.6-2.8 0-1.7-1.3-2.9-3-2.8z" />
			<path id="&lt;Path&gt;" fill-rule="evenodd" class="s0"
				d="m185.7 730.3c-1.5 0-3 1.4-3 2.9 0.1 1.3 1.4 2.6 2.8 2.7 1.7 0.1 3-1.2 2.9-2.9 0-1.5-1.1-2.7-2.7-2.7z" />
			<path id="&lt;Path&gt;" fill-rule="evenodd" class="s0"
				d="m443.1 5.7c1.6 0.1 2.8-0.9 2.9-2.4 0-1.6-1-2.7-2.6-2.8-1.5-0.1-2.8 1-2.9 2.5-0.1 1.4 1.1 2.6 2.6 2.7z" />
			<path id="&lt;Path&gt;" fill-rule="evenodd" class="s0"
				d="m786.6 306.3c1.7 0.1 2.8-0.9 2.9-2.4 0.1-1.6-1-2.7-2.6-2.8-1.5-0.1-2.8 1-2.9 2.4 0 1.5 1.1 2.7 2.6 2.8z" />
			<path id="&lt;Path&gt;" fill-rule="evenodd" class="s0"
				d="m13.9 306.3c1.6 0 2.7-1.1 2.7-2.6 0-1.5-1.2-2.6-2.7-2.6-1.6 0-2.8 1.2-2.8 2.6 0 1.4 1.3 2.6 2.8 2.6z" />
			<path id="&lt;Path&gt;" fill-rule="evenodd" class="s0"
				d="m765.2 241.9c1.6 0 2.8-1.1 2.8-2.6 0-1.5-1.1-2.6-2.7-2.6-1.6 0-2.8 1.2-2.7 2.7 0.2 1.5 1 2.4 2.6 2.5z" />
			<path id="&lt;Path&gt;" fill-rule="evenodd" class="s0"
				d="m35.3 241.9c1.6 0 2.8-1.2 2.7-2.7 0-1.5-1.2-2.6-2.8-2.5-1.4 0.1-2.5 1.2-2.6 2.5 0 1.5 1.2 2.7 2.7 2.7z" />
			<path id="&lt;Path&gt;" fill-rule="evenodd" class="s0"
				d="m357.2 5.7c1.7 0.1 2.8-0.9 2.9-2.4 0.1-1.6-1-2.7-2.6-2.8-1.5-0.1-2.8 1-2.9 2.5 0 1.4 1.1 2.6 2.6 2.7z" />
			<path id="&lt;Path&gt;" fill-rule="evenodd" class="s0"
				d="m271.3 773.5c-1.4 0.1-2.5 1.2-2.5 2.5 0 1.5 1.2 2.6 2.8 2.6 1.5 0 2.7-1.2 2.6-2.7-0.1-1.5-1.3-2.5-2.9-2.4z" />
			<path id="&lt;Path&gt;" fill-rule="evenodd" class="s0"
				d="m529 773.5c-1.6 0-2.7 1.3-2.5 2.8 0.2 1.4 1 2.3 2.6 2.3 1.6 0 2.8-1.1 2.7-2.6 0-1.5-1.2-2.6-2.8-2.5z" />
			<path id="&lt;Path&gt;" fill-rule="evenodd" class="s0"
				d="m378.7 795c-1.4 0-2.5 1.1-2.5 2.5 0 1.4 1 2.4 2.5 2.5 1.6 0.1 2.8-1 2.8-2.5 0-1.5-1.3-2.6-2.8-2.5z" />
			<path id="&lt;Path&gt;" fill-rule="evenodd" class="s0"
				d="m335.7 795c-1.5 0-2.5 1.1-2.5 2.5 0 1.4 1 2.4 2.5 2.5 1.6 0.1 2.8-1 2.8-2.5 0-1.5-1.3-2.6-2.8-2.5z" />
			<path id="&lt;Path&gt;" fill-rule="evenodd" class="s0"
				d="m421.9 794.9c-1.6 0-2.8 1.1-2.7 2.7 0 1.4 1 2.4 2.5 2.4 1.6 0 2.8-1.1 2.8-2.6-0.1-1.4-1.2-2.4-2.6-2.5z" />
			<path id="&lt;Path&gt;" fill-rule="evenodd" class="s0"
				d="m464.9 794.9c-1.6 0-2.8 1.1-2.7 2.7 0 1.4 1 2.4 2.5 2.4 1.6 0 2.8-1.1 2.7-2.6 0-1.4-1.1-2.4-2.5-2.5z" />
		</g>
	</g>
</svg>