<svg xmlns="http://www.w3.org/2000/svg" xmlns:xlink="http://www.w3.org/1999/xlink" viewBox="0 0 360 360"><defs><filter id="b" width="132.1%" height="132.1%" x="-16.1%" y="-16.1%"><feOffset in="SourceAlpha" result="shadowOffsetOuter1"/><feGaussianBlur in="shadowOffsetOuter1" result="shadowBlurOuter1" stdDeviation="15"/><feColorMatrix in="shadowBlurOuter1" values="0 0 0 0 0.980392157 0 0 0 0 0.980392157 0 0 0 0 0 0 0 0 0.503414554 0"/></filter><path id="a" d="M224 356.425c-73.137 0-132.425-59.287-132.425-132.423S150.863 91.575 224 91.575s132.425 59.29 132.425 132.427S297.137 356.425 224 356.425m135.996-63.584-4.468-9.954c-.008-.016-.016-.029-.02-.045-1.368-3.003-1.62-6.4-.459-9.487 11.935-31.75 11.935-66.96 0-98.706-1.16-3.088-.909-6.488.459-9.487a.253.253 0 0 1 .02-.049l4.468-9.95c1.603-3.579 1.396-7.722-.6-11.098a157.449 157.449 0 0 0-24.24-31.218c-9.576-9.573-20.078-17.656-31.222-24.242-3.372-1.997-7.515-2.204-11.094-.597l-9.954 4.468c-.017.008-.033.012-.045.02-3.003 1.364-6.4 1.615-9.488.455-31.75-11.935-66.957-11.935-98.706 0-3.089 1.16-6.485.909-9.488-.455-.012-.008-.028-.012-.045-.02l-9.954-4.468c-3.58-1.607-7.722-1.4-11.099.597-11.139 6.586-21.64 14.67-31.218 24.242a157.449 157.449 0 0 0-24.238 31.218c-1.997 3.376-2.204 7.519-.597 11.098l4.464 9.95c.008.016.012.033.02.049 1.368 2.999 1.62 6.4.459 9.487-11.935 31.746-11.935 66.956 0 98.706 1.16 3.088.909 6.484-.459 9.487l-.02.045-4.464 9.954c-1.607 3.575-1.4 7.718.597 11.094a157.332 157.332 0 0 0 24.238 31.218 157.438 157.438 0 0 0 31.218 24.242c3.377 1.997 7.52 2.2 11.1.597l9.953-4.468a.15.15 0 0 0 .045-.02c3.003-1.364 6.4-1.615 9.488-.455 31.75 11.935 66.957 11.935 98.706 0 3.089-1.16 6.485-.909 9.488.455a.15.15 0 0 0 .045.02l9.954 4.468c3.58 1.603 7.722 1.4 11.094-.597 11.144-6.586 21.646-14.665 31.223-24.242a157.332 157.332 0 0 0 24.238-31.218c1.997-3.376 2.204-7.519.6-11.094"/></defs><g fill="none" fill-rule="evenodd" transform="rotate(15 369.107 34.893)"><use xlink:href="#a" style="fill:#000;filter:url(#b)"/><use xlink:href="#a" style="fill:#fafa00"/></g></svg>