<svg class="icon icon--pokeball button__pokeball" aria-hidden="true" viewBox="0 0 40 40">
    <g fill="currentColor">
        <path
            d="M19.312 40H20.9c.053-.01.107-.024.161-.026 2.294-.11 4.514-.585 6.626-1.504 5.365-2.334 9.052-6.315 11.068-11.91a.6.6 0 0 0 .013-.324c-.11-.418-.22-.838-.362-1.245-.71-2.02-1.938-3.675-3.49-5.094-1.573-1.438-3.363-2.54-5.246-3.491-.014-.007-.031-.003-.046-.005-1.657 3.105-5.09 4.407-8.128 3.563a6.9 6.9 0 0 1-3.696-2.476c-1.254-1.618-1.716-3.47-1.47-5.52-.034-.005-.06-.01-.087-.012-.71-.047-1.418-.112-2.128-.137-2.367-.083-4.713.101-7.024.652-1.4.333-2.752.803-3.997 1.552-.864.52-1.63 1.155-2.192 2.02a.6.6 0 0 0-.103.225c-.086.585-.172 1.17-.241 1.756-.048.401-.069.806-.101 1.21v1.622c.009.055.024.11.026.166a19.7 19.7 0 0 0 1.219 5.992c1.65 4.412 4.482 7.816 8.455 10.217a19 19 0 0 0 8.45 2.705z" />
        <path
            d="m19.349 0-.738.063c-4.097.34-7.76 1.802-10.957 4.445-2.435 2.013-4.282 4.491-5.563 7.409l-.07.165c.17-.159.363-.349.568-.526.754-.654 1.637-1.065 2.56-1.398 1.249-.452 2.54-.724 3.848-.913 2.209-.319 4.429-.393 6.655-.3.522.023 1.044.062 1.565.104.117.009.177-.033.24-.124 1.188-1.712 2.801-2.735 4.83-3.044 3.778-.577 7.32 2.045 7.983 5.898a8 8 0 0 1 .1 1.106c.005.16.059.235.188.306 1.513.824 2.953 1.764 4.285 2.87 1.427 1.186 2.696 2.518 3.662 4.13a9.8 9.8 0 0 1 1.021 2.312.15.15 0 0 0 .076.097l.128-1.503.033-.316v-1.62c-.01-.059-.024-.119-.027-.179a19 19 0 0 0-.786-4.702c-1.679-5.532-5.077-9.59-10.123-12.202C26.56.906 24.142.253 21.607.061Q21.255.033 20.902 0z" />
        <path
            d="M23.437 17c2.313-.005 4.2-1.93 4.202-4.284 0-2.391-1.888-4.322-4.221-4.316-2.31.006-4.195 1.938-4.188 4.293.007 2.395 1.88 4.312 4.207 4.307" />
    </g>
</svg>